<svg xmlns="http://www.w3.org/2000/svg" xmlns:xlink="http://www.w3.org/1999/xlink" fill="none" version="1.1" width="80" height="80" viewBox="0 0 80 80"><defs><clipPath id="master_svg0_11_22969"><rect x="26" y="21" width="29" height="38" rx="0"/></clipPath></defs><g><g><rect x="0" y="0" width="80" height="80" rx="40" fill="#E1E1E1" fill-opacity="1"/><rect x="0" y="0" width="80" height="80" rx="40" fill-opacity="0" stroke-opacity="1" stroke="#FAFAFD" fill="none" stroke-width="0"/></g><g clip-path="url(#master_svg0_11_22969)"><g><path d="M40.5456796875,21C34.6365196875,21,29.8466796875,25.748440000000002,29.8466796875,31.6052C29.8466796875,37.462,34.6365196875,42.209900000000005,40.5456796875,42.209900000000005C46.4548796875,42.209900000000005,51.244079687500005,37.462,51.244079687500005,31.6052L51.244079687500005,21L40.5456796875,21ZM35.7498796875,33.6688C35.6038196875,33.8136,35.4020996875,33.888999999999996,35.1961896875,33.8771C34.9896796875,33.888999999999996,34.7885596875,33.8136,34.6418996875,33.6688C34.4958496875,33.524100000000004,34.4198296875,33.3241,34.4317996875,33.1194L34.4317996875,30.08986C34.4317996875,29.67156,34.7741896875,29.33277,35.1961896875,29.33277C35.6181896875,29.33277,35.9605796875,29.67156,35.9605796875,30.08986L35.9605796875,33.12C35.9725496875,33.3247,35.8959296875,33.524100000000004,35.7498796875,33.6688ZM41.099379687500004,33.6688C40.9527796875,33.8136,40.7515796875,33.888999999999996,40.5456796875,33.8771C40.3391796875,33.888999999999996,40.137479687500004,33.8136,39.9913796875,33.6688C39.8453596875,33.524100000000004,39.7687396875,33.3241,39.7813096875,33.1194L39.7813096875,30.08986C39.7813096875,29.67156,40.1230796875,29.33277,40.5456796875,29.33277C40.9682796875,29.33277,41.3100796875,29.67156,41.3100796875,30.08986L41.3100796875,33.12C41.3220796875,33.3247,41.2454796875,33.524100000000004,41.099379687500004,33.6688Z" fill="#262626" fill-opacity="0.33000001311302185"/></g><g><path d="M26,54.124204375C26,48.291744375,30.84012,45.240234375,36.724199999999996,45.240234375L44.3662,45.240234375C50.250299999999996,45.240234375,55.0006,48.346924375,55.0006,54.179384375Q49.7576,59.018034375,40.6299,59.000234375Q31.50215,58.983034375,26,54.124204375Z" fill="#262626" fill-opacity="0.33000001311302185"/></g></g></g></svg>