<svg xmlns="http://www.w3.org/2000/svg" xmlns:xlink="http://www.w3.org/1999/xlink" fill="none" version="1.1" width="108" height="50" viewBox="0 0 108 50"><defs><linearGradient x1="-0.409088134765625" y1="0.5" x2="1" y2="0.7916666865348816" id="master_svg0_1_29220"><stop offset="0%" stop-color="#FF6824" stop-opacity="1"/><stop offset="100%" stop-color="#F92BBD" stop-opacity="1"/></linearGradient></defs><g><g></g><g></g><g><g><path d="M33.15948199157715,12.726234999999999C34.19718199157715,13.774000000000001,33.99438199157715,16.33011,32.65278199157714,19.11343C33.33208199157715,20.64386,33.68298199157715,22.2997,33.68298199157715,23.9747C33.68298199157715,30.5799,28.34068199157715,35.9345,21.75058199157715,35.9345C20.03908199157715,35.9345,18.346961991577146,35.5653,16.790331991577148,34.852199999999996C14.544151991577149,35.9063,12.594271991577148,36.2526,11.36799199157715,35.815200000000004C11.027861991577149,35.6939,10.73039099157715,35.5088,10.497595991577148,35.2738C9.477096991577149,34.2434,9.652225991577149,31.7504,10.936251991577148,29.0294C10.199724991577149,27.4463,9.818181991577148,25.7214,9.818181991577148,23.9747C9.818181991577148,17.36957,15.16049199157715,12.0150081,21.75058199157715,12.0150081C23.51128199157715,12.0150081,25.25078199157715,12.40575,26.843181991577147,13.15893C29.09958199157715,12.0961759,31.05848199157715,11.745789,32.28908199157715,12.184807C32.62918199157715,12.30614,32.92668199157715,12.491185,33.15948199157715,12.726234999999999ZM11.638681991577148,34.584599999999995Q10.085626991577149,33.8251,12.198361991577148,29.4534L14.43753199157715,32.304L14.43753199157715,20.90174Q14.997321991577149,18.05118,17.79628199157715,18.05118Q20.59528199157715,18.05118,25.07358199157715,24.8926L25.07358199157715,16.91102C25.07358199157715,14.06047,30.11168199157715,12.350191,31.791081991577148,13.490359999999999Q33.470481991577145,14.63052,31.23128199157715,18.62128L28.992181991577148,15.77072Q31.23128199157715,28.3132,27.312781991577147,30.0235Q23.39418199157715,31.7338,18.35608199157715,23.1822Q18.40663199157715,30.4017,18.35613199157715,31.7339Q18.30563199157715,33.0661,16.11696199157715,34.014399999999995Q13.191741991577148,35.3442,11.638681991577148,34.584599999999995Z" fill-rule="evenodd" fill="url(#master_svg0_1_29220)" fill-opacity="1"/></g><g><path d="M45.81818199157715,30.79250114440918L45.81818199157715,17.20750044440918L48.89618199157715,17.20750044440918L58.51018199157715,26.97350114440918L58.51018199157715,17.20750044440918L61.55018199157715,17.20750044440918L61.55018199157715,30.79250114440918L58.472181991577145,30.79250114440918L48.85818199157715,21.00750114440918L48.85818199157715,30.79250114440918L45.81818199157715,30.79250114440918ZM71.06918199157715,30.88750114440918Q67.44018199157715,30.88750114440918,65.44518199157714,29.14900114440918Q63.45018199157715,27.41050114440918,63.45018199157715,23.99050114440918Q63.45018199157715,20.58950114440918,65.44518199157714,18.851001144409178Q67.44018199157715,17.11250114440918,71.20218199157715,17.11250114440918L74.62218199157715,17.11250114440918Q78.38418199157715,17.11250114440918,80.37918199157716,18.851001144409178Q82.37418199157715,20.58950114440918,82.37418199157715,23.99050114440918Q82.37418199157715,27.41050114440918,80.37918199157716,29.14900114440918Q78.38418199157715,30.88750114440918,74.71718199157715,30.88750114440918L71.06918199157715,30.88750114440918ZM71.41118199157715,19.58250114440918Q69.30218199157716,19.58250114440918,68.12418199157715,20.34250114440918Q66.94618199157715,21.10250114440918,66.64218199157715,22.75550114440918L79.18218199157715,22.75550114440918Q78.87818199157715,21.10250114440918,77.70018199157715,20.34250114440918Q76.52218199157716,19.58250114440918,74.41318199157715,19.58250114440918L71.41118199157715,19.58250114440918ZM71.46818199157715,28.41750114440918L74.41318199157715,28.41750114440918Q76.54118199157715,28.41750114440918,77.70968199157716,27.65750114440918Q78.87818199157715,26.89750114440918,79.18218199157715,25.22550114440918L66.64218199157715,25.22550114440918Q66.94618199157715,26.89750114440918,68.12418199157715,27.65750114440918Q69.30218199157716,28.41750114440918,71.46818199157715,28.41750114440918ZM85.41418199157715,30.79250114440918L83.89418199157714,17.20750044440918L86.93418199157715,17.20750044440918L88.05518199157714,27.125501144409178L91.83618199157715,24.21850114440918L91.83618199157715,17.20750044440918L94.87618199157714,17.20750044440918L94.87618199157714,24.23750114440918L98.61918199157715,27.125501144409178L99.75918199157715,17.20750044440918L102.79918199157714,17.20750044440918L101.27918199157715,30.79250114440918L98.73318199157714,30.79250114440918L93.35618199157715,26.44150114440918L87.96018199157714,30.79250114440918L85.41418199157715,30.79250114440918Z" fill="#000000" fill-opacity="1"/></g></g></g></svg>