<svg xmlns="http://www.w3.org/2000/svg" xmlns:xlink="http://www.w3.org/1999/xlink" fill="none" version="1.1" width="24" height="24" viewBox="0 0 24 24"><defs><clipPath id="master_svg0_21_43366"><rect x="0" y="0" width="24" height="24" rx="0"/></clipPath></defs><g clip-path="url(#master_svg0_21_43366)"><g><path d="M12.905,3.0600447080230713C12.905,3.0600447080230713,13.185,2.1000767080230713,13.185,2.1000767080230713C13.185,2.1000767080230713,13.185,2.1000767080230713,13.185,2.1000767080230713C13.185,2.1000767080230713,12.905,3.0600447080230713,12.905,3.0600447080230713C12.905,3.0600447080230713,12.905,3.0600447080230713,12.905,3.0600447080230713ZM13.6657,3.5751047080230713C13.6657,3.5751047080230713,12.8784,4.191704708023071,12.8784,4.191704708023071C12.8784,4.191704708023071,12.8784,4.191704708023071,12.8784,4.191704708023071C12.8784,4.191704708023071,13.6657,3.5751047080230713,13.6657,3.5751047080230713C13.6657,3.5751047080230713,13.6657,3.5751047080230713,13.6657,3.5751047080230713ZM12.905,20.939984708023072C12.905,20.939984708023072,13.185,21.89988470802307,13.185,21.89988470802307C13.185,21.89988470802307,13.185,21.89988470802307,13.185,21.89988470802307C13.185,21.89988470802307,12.905,20.939984708023072,12.905,20.939984708023072C12.905,20.939984708023072,12.905,20.939984708023072,12.905,20.939984708023072ZM13.6657,20.42488470802307C13.6657,20.42488470802307,14.453,21.04148470802307,14.453,21.04148470802307C14.453,21.04148470802307,14.453,21.04148470802307,14.453,21.04148470802307C14.453,21.04148470802307,13.6657,20.42488470802307,13.6657,20.42488470802307C13.6657,20.42488470802307,13.6657,20.42488470802307,13.6657,20.42488470802307ZM11.09573,20.939984708023072C11.09573,20.939984708023072,10.81562,21.89988470802307,10.81562,21.89988470802307C10.81562,21.89988470802307,10.81563,21.89988470802307,10.81563,21.89988470802307C10.81563,21.89988470802307,11.09573,20.939984708023072,11.09573,20.939984708023072C11.09573,20.939984708023072,11.09573,20.939984708023072,11.09573,20.939984708023072ZM10.33497,20.42488470802307C10.33497,20.42488470802307,9.54769,21.04148470802307,9.54769,21.04148470802307C9.54769,21.04148470802307,9.54769,21.04148470802307,9.54769,21.04148470802307C9.54769,21.04148470802307,10.33497,20.42488470802307,10.33497,20.42488470802307C10.33497,20.42488470802307,10.33497,20.42488470802307,10.33497,20.42488470802307ZM11.09573,3.0600447080230713C11.09573,3.0600447080230713,11.37584,4.020024708023071,11.37584,4.020024708023071C11.37584,4.020024708023071,11.09573,3.0600447080230713,11.09573,3.0600447080230713C11.09573,3.0600447080230713,11.09573,3.0600447080230713,11.09573,3.0600447080230713ZM10.33497,3.5751047080230713C10.33497,3.5751047080230713,9.54769,2.958512708023071,9.54769,2.958512708023071C9.54769,2.958512708023071,9.54769,2.958512708023071,9.54769,2.958512708023071C9.54769,2.958512708023071,10.33497,3.5751047080230713,10.33497,3.5751047080230713C10.33497,3.5751047080230713,10.33497,3.5751047080230713,10.33497,3.5751047080230713ZM7.79813,4.932814708023072C7.79813,4.932814708023072,7.4819,5.881494708023071,7.4819,5.881494708023071C7.4819,5.881494708023071,7.48201,5.8815347080230715,7.48201,5.8815347080230715C7.48201,5.8815347080230715,7.79813,4.932814708023072,7.79813,4.932814708023072C7.79813,4.932814708023072,7.79813,4.932814708023072,7.79813,4.932814708023072ZM16.1582,19.052884708023072C16.1582,19.052884708023072,15.8419,20.00148470802307,15.8419,20.00148470802307C15.8419,20.00148470802307,15.842,20.00148470802307,15.842,20.00148470802307C15.842,20.00148470802307,16.1582,19.052884708023072,16.1582,19.052884708023072C16.1582,19.052884708023072,16.1582,19.052884708023072,16.1582,19.052884708023072ZM19.0527,16.15838470802307C19.0527,16.15838470802307,20.0014,15.84218470802307,20.0014,15.84218470802307C20.0014,15.84218470802307,19.0527,16.15838470802307,19.0527,16.15838470802307C19.0527,16.15838470802307,19.0527,16.15838470802307,19.0527,16.15838470802307ZM6.15735,4.915904708023071C6.15735,4.915904708023071,6.65582,5.782814708023071,6.65582,5.782814708023071C6.65582,5.782814708023071,6.65583,5.782814708023071,6.65583,5.782814708023071C6.65583,5.782814708023071,6.15735,4.915904708023071,6.15735,4.915904708023071C6.15735,4.915904708023071,6.15735,4.915904708023071,6.15735,4.915904708023071ZM6.9923,4.718804708023072C6.9923,4.718804708023072,6.93414,5.717114708023072,6.93414,5.717114708023072C6.93414,5.717114708023072,6.93414,5.717114708023072,6.93414,5.717114708023072C6.93414,5.717114708023072,6.9923,4.718804708023072,6.9923,4.718804708023072C6.9923,4.718804708023072,6.9923,4.718804708023072,6.9923,4.718804708023072ZM19.104,17.806784708023073C19.104,17.806784708023073,19.9842,18.281384708023072,19.9842,18.281384708023072C19.9842,18.281384708023072,19.9842,18.281384708023072,19.9842,18.281384708023072C19.9842,18.281384708023072,19.104,17.806784708023073,19.104,17.806784708023073C19.104,17.806784708023073,19.104,17.806784708023073,19.104,17.806784708023073ZM19.283,17.04868470802307C19.283,17.04868470802307,18.2835,17.079484708023074,18.2835,17.079484708023074C18.2835,17.079484708023074,18.2835,17.079484708023074,18.2835,17.079484708023074C18.2835,17.079484708023074,19.283,17.04868470802307,19.283,17.04868470802307C19.283,17.04868470802307,19.283,17.04868470802307,19.283,17.04868470802307ZM17.8066,19.10418470802307C17.8066,19.10418470802307,18.2812,19.98438470802307,18.2812,19.98438470802307C18.2812,19.98438470802307,18.2812,19.98438470802307,18.2812,19.98438470802307C18.2812,19.98438470802307,17.8066,19.10418470802307,17.8066,19.10418470802307C17.8066,19.10418470802307,17.8066,19.10418470802307,17.8066,19.10418470802307ZM17.0485,19.28318470802307C17.0485,19.28318470802307,17.0176,20.282684708023073,17.0176,20.282684708023073C17.0176,20.282684708023073,17.0485,19.28318470802307,17.0485,19.28318470802307C17.0485,19.28318470802307,17.0485,19.28318470802307,17.0485,19.28318470802307ZM4.9493,6.131894708023071C4.9493,6.131894708023071,5.8230900000000005,6.618194708023071,5.8230900000000005,6.618194708023071C5.8230900000000005,6.618194708023071,5.8230900000000005,6.618194708023071,5.8230900000000005,6.618194708023071C5.8230900000000005,6.618194708023071,4.9493,6.131894708023071,4.9493,6.131894708023071C4.9493,6.131894708023071,4.9493,6.131894708023071,4.9493,6.131894708023071ZM4.76793,7.015514708023071C4.76793,7.015514708023071,3.77323,7.118294708023071,3.77323,7.118294708023071C3.77323,7.118294708023071,3.77323,7.118294708023071,3.77323,7.118294708023071C3.77323,7.118294708023071,4.76793,7.015514708023071,4.76793,7.015514708023071C4.76793,7.015514708023071,4.76793,7.015514708023071,4.76793,7.015514708023071ZM16.2021,4.932734708023071C16.2021,4.932734708023071,16.5183,5.881424708023071,16.5183,5.881424708023071C16.5183,5.881424708023071,16.5183,5.881424708023071,16.5183,5.881424708023071C16.5183,5.881424708023071,16.2021,4.932734708023071,16.2021,4.932734708023071C16.2021,4.932734708023071,16.2021,4.932734708023071,16.2021,4.932734708023071ZM4.94755,16.15838470802307C4.94755,16.15838470802307,5.896240000000001,16.474584708023073,5.896240000000001,16.474584708023073C5.896240000000001,16.474584708023073,5.896240000000001,16.474584708023073,5.896240000000001,16.474584708023073C5.896240000000001,16.474584708023073,4.94755,16.15838470802307,4.94755,16.15838470802307C4.94755,16.15838470802307,4.94755,16.15838470802307,4.94755,16.15838470802307ZM7.84198,19.052784708023072C7.84198,19.052784708023072,7.52575,18.10408470802307,7.52575,18.10408470802307C7.52575,18.10408470802307,7.52575,18.10408470802307,7.52575,18.10408470802307C7.52575,18.10408470802307,7.84198,19.052784708023072,7.84198,19.052784708023072C7.84198,19.052784708023072,7.84198,19.052784708023072,7.84198,19.052784708023072ZM17.8429,4.9158347080230715C17.8429,4.9158347080230715,18.3414,4.048934708023071,18.3414,4.048934708023071C18.3414,4.048934708023071,18.3414,4.048934708023071,18.3414,4.048934708023071C18.3414,4.048934708023071,17.8429,4.9158347080230715,17.8429,4.9158347080230715C17.8429,4.9158347080230715,17.8429,4.9158347080230715,17.8429,4.9158347080230715ZM17.0079,4.718724708023071C17.0079,4.718724708023071,17.0661,5.717034708023071,17.0661,5.717034708023071C17.0661,5.717034708023071,17.0661,5.717034708023071,17.0661,5.717034708023071C17.0661,5.717034708023071,17.0079,4.718724708023071,17.0079,4.718724708023071C17.0079,4.718724708023071,17.0079,4.718724708023071,17.0079,4.718724708023071ZM4.89621,17.80668470802307C4.89621,17.80668470802307,4.016,18.281284708023072,4.016,18.281284708023072C4.016,18.281284708023072,4.01601,18.281284708023072,4.01601,18.281284708023072C4.01601,18.281284708023072,4.89621,17.80668470802307,4.89621,17.80668470802307C4.89621,17.80668470802307,4.89621,17.80668470802307,4.89621,17.80668470802307ZM4.71724,17.04858470802307C4.71724,17.04858470802307,5.71676,17.07938470802307,5.71676,17.07938470802307C5.71676,17.07938470802307,5.71676,17.07938470802307,5.71676,17.07938470802307C5.71676,17.07938470802307,4.71724,17.04858470802307,4.71724,17.04858470802307C4.71724,17.04858470802307,4.71724,17.04858470802307,4.71724,17.04858470802307ZM6.19359,19.10408470802307C6.19359,19.10408470802307,5.718999999999999,19.984284708023072,5.718999999999999,19.984284708023072C5.718999999999999,19.984284708023072,5.718999999999999,19.984284708023072,5.718999999999999,19.984284708023072C5.718999999999999,19.984284708023072,6.19359,19.10408470802307,6.19359,19.10408470802307C6.19359,19.10408470802307,6.19359,19.10408470802307,6.19359,19.10408470802307ZM6.95174,19.283084708023072C6.95174,19.283084708023072,6.98258,20.282584708023073,6.98258,20.282584708023073C6.98258,20.282584708023073,6.98258,20.282584708023073,6.98258,20.282584708023073C6.98258,20.282584708023073,6.95174,19.283084708023072,6.95174,19.283084708023072C6.95174,19.283084708023072,6.95174,19.283084708023072,6.95174,19.283084708023072ZM19.0509,6.131814708023072C19.0509,6.131814708023072,18.1771,6.618114708023072,18.1771,6.618114708023072C18.1771,6.618114708023072,18.1771,6.618114708023072,18.1771,6.618114708023072C18.1771,6.618114708023072,19.0509,6.131814708023072,19.0509,6.131814708023072C19.0509,6.131814708023072,19.0509,6.131814708023072,19.0509,6.131814708023072ZM19.2323,7.015434708023071C19.2323,7.015434708023071,20.227,7.118214708023071,20.227,7.118214708023071C20.227,7.118214708023071,20.227,7.118214708023071,20.227,7.118214708023071C20.227,7.118214708023071,19.2323,7.015434708023071,19.2323,7.015434708023071C19.2323,7.015434708023071,19.2323,7.015434708023071,19.2323,7.015434708023071ZM4.16555,9.800874708023072C4.16555,9.800874708023072,4.68005,10.658374708023072,4.68005,10.658374708023072C4.68005,10.658374708023072,4.68013,10.658324708023072,4.68013,10.658324708023072C4.68013,10.658324708023072,4.16555,9.800874708023072,4.16555,9.800874708023072C4.16555,9.800874708023072,4.16555,9.800874708023072,4.16555,9.800874708023072ZM19.8351,9.800874708023072C19.8351,9.800874708023072,19.3206,10.658374708023072,19.3206,10.658374708023072C19.3206,10.658374708023072,19.3206,10.658374708023072,19.3206,10.658374708023072C19.3206,10.658374708023072,19.8351,9.800874708023072,19.8351,9.800874708023072C19.8351,9.800874708023072,19.8351,9.800874708023072,19.8351,9.800874708023072ZM3.07144,10.89296470802307C3.07144,10.89296470802307,4.024039999999999,11.197184708023071,4.024039999999999,11.197184708023071C4.024039999999999,11.197184708023071,4.024039999999999,11.197184708023071,4.024039999999999,11.197184708023071C4.024039999999999,11.197184708023071,3.07144,10.89296470802307,3.07144,10.89296470802307C3.07144,10.89296470802307,3.07144,10.89296470802307,3.07144,10.89296470802307ZM3.3738900000000003,10.358784708023071C3.3738900000000003,10.358784708023071,2.622915,9.698454708023071,2.622915,9.698454708023071C2.622915,9.698454708023071,2.6229139999999997,9.698454708023071,2.6229139999999997,9.698454708023071C2.6229139999999997,9.698454708023071,3.3738900000000003,10.358784708023071,3.3738900000000003,10.358784708023071C3.3738900000000003,10.358784708023071,3.3738900000000003,10.358784708023071,3.3738900000000003,10.358784708023071ZM20.9292,10.89296470802307C20.9292,10.89296470802307,19.9766,11.197184708023071,19.9766,11.197184708023071C19.9766,11.197184708023071,19.9766,11.197184708023071,19.9766,11.197184708023071C19.9766,11.197184708023071,20.9292,10.89296470802307,20.9292,10.89296470802307C20.9292,10.89296470802307,20.9292,10.89296470802307,20.9292,10.89296470802307ZM20.6268,10.358784708023071C20.6268,10.358784708023071,19.8758,11.019124708023071,19.8758,11.019124708023071C19.8758,11.019124708023071,19.8758,11.019124708023071,19.8758,11.019124708023071C19.8758,11.019124708023071,20.6268,10.358784708023071,20.6268,10.358784708023071C20.6268,10.358784708023071,20.6268,10.358784708023071,20.6268,10.358784708023071ZM20.9057,13.008784708023072C20.9057,13.008784708023072,19.9688,12.659184708023071,19.9688,12.659184708023071C19.9688,12.659184708023071,19.9688,12.659184708023071,19.9688,12.659184708023071C19.9688,12.659184708023071,20.9057,13.008784708023072,20.9057,13.008784708023072C20.9057,13.008784708023072,20.9057,13.008784708023072,20.9057,13.008784708023072ZM20.5091,13.59458470802307C20.5091,13.59458470802307,19.8366,12.85448470802307,19.8366,12.85448470802307C19.8366,12.85448470802307,19.8366,12.85448470802307,19.8366,12.85448470802307C19.8366,12.85448470802307,20.5091,13.59458470802307,20.5091,13.59458470802307C20.5091,13.59458470802307,20.5091,13.59458470802307,20.5091,13.59458470802307ZM3.09497,13.008784708023072C3.09497,13.008784708023072,4.03188,12.659184708023071,4.03188,12.659184708023071C4.03188,12.659184708023071,4.03188,12.659184708023071,4.03188,12.659184708023071C4.03188,12.659184708023071,3.09497,13.008784708023072,3.09497,13.008784708023072C3.09497,13.008784708023072,3.09497,13.008784708023072,3.09497,13.008784708023072ZM3.49158,13.59458470802307C3.49158,13.59458470802307,2.8190720000000002,14.33468470802307,2.8190720000000002,14.33468470802307C2.8190720000000002,14.33468470802307,2.8190720000000002,14.33468470802307,2.8190720000000002,14.33468470802307C2.8190720000000002,14.33468470802307,3.49158,13.59458470802307,3.49158,13.59458470802307C3.49158,13.59458470802307,3.49158,13.59458470802307,3.49158,13.59458470802307ZM18.8377,15.513384708023072C18.8377,15.513384708023072,19.7863,15.197084708023072,19.7863,15.197084708023072C19.7863,15.197084708023072,18.8377,15.513384708023072,18.8377,15.513384708023072C18.8377,15.513384708023072,18.8377,15.513384708023072,18.8377,15.513384708023072ZM8.368960000000001,18.877084708023073C8.368960000000001,18.877084708023073,8.05273,17.92838470802307,8.05273,17.92838470802307C8.05273,17.92838470802307,8.368960000000001,18.877084708023073,8.368960000000001,18.877084708023073C8.368960000000001,18.877084708023073,8.368960000000001,18.877084708023073,8.368960000000001,18.877084708023073ZM19.5572,9.634164708023071C19.5572,9.634164708023071,19.0427,10.491654708023072,19.0427,10.491654708023072C19.0427,10.491654708023072,19.5572,9.634164708023071,19.5572,9.634164708023071C19.5572,9.634164708023071,19.5572,9.634164708023071,19.5572,9.634164708023071ZM8.36891,5.123004708023071C8.36891,5.123004708023071,8.05279,6.071724708023071,8.05279,6.071724708023071C8.05279,6.071724708023071,8.36891,5.123004708023071,8.36891,5.123004708023071C8.36891,5.123004708023071,8.36891,5.123004708023071,8.36891,5.123004708023071ZM5.1627,15.512884708023071C5.1627,15.512884708023071,4.21402,15.19668470802307,4.21402,15.19668470802307C4.21402,15.19668470802307,5.1627,15.512884708023071,5.1627,15.512884708023071C5.1627,15.512884708023071,5.1627,15.512884708023071,5.1627,15.512884708023071ZM15.6316,18.877284708023073C15.6316,18.877284708023073,15.3153,19.82588470802307,15.3153,19.82588470802307C15.3153,19.82588470802307,15.6316,18.877284708023073,15.6316,18.877284708023073C15.6316,18.877284708023073,15.6316,18.877284708023073,15.6316,18.877284708023073ZM15.6317,5.122874708023071C15.6317,5.122874708023071,15.9479,6.071564708023072,15.9479,6.071564708023072C15.9479,6.071564708023072,15.6317,5.122874708023071,15.6317,5.122874708023071C15.6317,5.122874708023071,15.6317,5.122874708023071,15.6317,5.122874708023071ZM12.0003,4.000004708023072C12.5289,4.000004708023072,12.5893,4.009644708023071,12.6248,4.020024708023071C12.6248,4.020024708023071,13.185,2.1000767080230713,13.185,2.1000767080230713C12.8091,1.9903600480230712,12.4035,2.000000052023071,12.0003,2.000000052023071C12.0003,2.000000052023071,12.0003,4.000004708023072,12.0003,4.000004708023072C12.0003,4.000004708023072,12.0003,4.000004708023072,12.0003,4.000004708023072ZM14.9859,4.021334708023071C14.8361,3.6469747080230714,14.6945,3.2668747080230713,14.453,2.958512708023071C14.453,2.958512708023071,12.8784,4.191704708023071,12.8784,4.191704708023071C12.9013,4.2208747080230715,12.9326,4.273344708023071,13.1289,4.7641147080230715C13.1289,4.7641147080230715,14.9859,4.021334708023071,14.9859,4.021334708023071C14.9859,4.021334708023071,14.9859,4.021334708023071,14.9859,4.021334708023071ZM12.6248,4.020024708023071C12.7253,4.049314708023071,12.8139,4.109364708023071,12.8784,4.191704708023071C12.8784,4.191704708023071,14.453,2.958512708023071,14.453,2.958512708023071C14.1305,2.5467937080230714,13.687,2.246561708023071,13.185,2.1000767080230713C13.185,2.1000767080230713,12.6248,4.020024708023071,12.6248,4.020024708023071C12.6248,4.020024708023071,12.6248,4.020024708023071,12.6248,4.020024708023071ZM12.0003,21.99998470802307C12.4035,21.99998470802307,12.8091,22.00958470802307,13.185,21.89988470802307C13.185,21.89988470802307,12.6249,19.97998470802307,12.6249,19.97998470802307C12.5893,19.990384708023072,12.5289,19.99998470802307,12.0003,19.99998470802307C12.0003,19.99998470802307,12.0003,21.99998470802307,12.0003,21.99998470802307C12.0003,21.99998470802307,12.0003,21.99998470802307,12.0003,21.99998470802307ZM13.1289,19.23588470802307C12.9326,19.726684708023072,12.9013,19.77908470802307,12.8784,19.80828470802307C12.8784,19.80828470802307,14.453,21.04148470802307,14.453,21.04148470802307C14.6945,20.73308470802307,14.8361,20.352984708023072,14.9859,19.97868470802307C14.9859,19.97868470802307,13.1289,19.23588470802307,13.1289,19.23588470802307C13.1289,19.23588470802307,13.1289,19.23588470802307,13.1289,19.23588470802307ZM13.185,21.89988470802307C13.687,21.75338470802307,14.1305,21.45318470802307,14.453,21.04148470802307C14.453,21.04148470802307,12.8784,19.80828470802307,12.8784,19.80828470802307C12.8139,19.89058470802307,12.7253,19.950684708023072,12.6248,19.97998470802307C12.6248,19.97998470802307,13.185,21.89988470802307,13.185,21.89988470802307C13.185,21.89988470802307,13.185,21.89988470802307,13.185,21.89988470802307ZM12.0003,19.99998470802307C11.47177,19.99998470802307,11.41141,19.990384708023072,11.37583,19.97998470802307C11.37583,19.97998470802307,10.81563,21.89988470802307,10.81563,21.89988470802307C11.19163,22.00958470802307,11.59715,21.99998470802307,12.0003,21.99998470802307C12.0003,21.99998470802307,12.0003,19.99998470802307,12.0003,19.99998470802307C12.0003,19.99998470802307,12.0003,19.99998470802307,12.0003,19.99998470802307ZM9.01478,19.97868470802307C9.16452,20.352984708023072,9.306180000000001,20.73308470802307,9.54769,21.04148470802307C9.54769,21.04148470802307,11.12225,19.80828470802307,11.12225,19.80828470802307C11.0994,19.77908470802307,11.06804,19.726684708023072,10.87173,19.23588470802307C10.87173,19.23588470802307,9.01478,19.97868470802307,9.01478,19.97868470802307C9.01478,19.97868470802307,9.01478,19.97868470802307,9.01478,19.97868470802307ZM11.37584,19.97998470802307C11.27543,19.950684708023072,11.18674,19.89058470802307,11.12225,19.80828470802307C11.12225,19.80828470802307,9.54769,21.04148470802307,9.54769,21.04148470802307C9.870149999999999,21.45318470802307,10.3136,21.75338470802307,10.81562,21.89988470802307C10.81562,21.89988470802307,11.37584,19.97998470802307,11.37584,19.97998470802307C11.37584,19.97998470802307,11.37584,19.97998470802307,11.37584,19.97998470802307ZM12.0003,2.000000052023071C11.59715,2.000000052023071,11.19163,1.9903600480230712,10.81563,2.1000767080230713C10.81563,2.1000767080230713,11.37584,4.020024708023071,11.37584,4.020024708023071C11.41141,4.009644708023071,11.47177,4.000004708023072,12.0003,4.000004708023072C12.0003,4.000004708023072,12.0003,2.000000052023071,12.0003,2.000000052023071C12.0003,2.000000052023071,12.0003,2.000000052023071,12.0003,2.000000052023071ZM10.87173,4.7641147080230715C11.06804,4.273344708023071,11.0994,4.2208747080230715,11.12225,4.191704708023071C11.12225,4.191704708023071,9.54769,2.958512708023071,9.54769,2.958512708023071C9.306180000000001,3.2668747080230713,9.16452,3.6469747080230714,9.01478,4.021324708023071C9.01478,4.021324708023071,10.87173,4.7641147080230715,10.87173,4.7641147080230715C10.87173,4.7641147080230715,10.87173,4.7641147080230715,10.87173,4.7641147080230715ZM10.81563,2.1000767080230713C10.3136,2.246561708023071,9.87014,2.5467937080230714,9.54769,2.958512708023071C9.54769,2.958512708023071,11.12225,4.191704708023071,11.12225,4.191704708023071C11.18674,4.109364708023071,11.27543,4.049314708023071,11.37584,4.020024708023071C11.37584,4.020024708023071,10.81563,2.1000767080230713,10.81563,2.1000767080230713C10.81563,2.1000767080230713,10.81563,2.1000767080230713,10.81563,2.1000767080230713ZM8.68504,4.174284708023071C8.68504,4.174284708023071,8.11425,3.984094708023071,8.11425,3.984094708023071C8.11425,3.984094708023071,7.48201,5.8815347080230715,7.48201,5.8815347080230715C7.48201,5.8815347080230715,8.05279,6.071724708023071,8.05279,6.071724708023071C8.05279,6.071724708023071,8.68504,4.174284708023071,8.68504,4.174284708023071C8.68504,4.174284708023071,8.68504,4.174284708023071,8.68504,4.174284708023071ZM15.3153,19.82588470802307C15.3153,19.82588470802307,15.8419,20.00148470802307,15.8419,20.00148470802307C15.8419,20.00148470802307,16.474600000000002,18.10418470802307,16.474600000000002,18.10418470802307C16.474600000000002,18.10418470802307,15.948,17.928584708023074,15.948,17.928584708023074C15.948,17.928584708023074,15.3153,19.82588470802307,15.3153,19.82588470802307C15.3153,19.82588470802307,15.3153,19.82588470802307,15.3153,19.82588470802307ZM20.0014,15.84218470802307C20.0014,15.84218470802307,19.7863,15.197084708023072,19.7863,15.197084708023072C19.7863,15.197084708023072,17.889,15.829584708023072,17.889,15.829584708023072C17.889,15.829584708023072,18.104,16.47468470802307,18.104,16.47468470802307C18.104,16.47468470802307,20.0014,15.84218470802307,20.0014,15.84218470802307C20.0014,15.84218470802307,20.0014,15.84218470802307,20.0014,15.84218470802307ZM6.23941,6.174804708023071C6.58143,5.832794708023071,6.62581,5.800074708023072,6.65582,5.782814708023071C6.65582,5.782814708023071,5.65887,4.049004708023071,5.65887,4.049004708023071C5.34418,4.2299547080230715,5.08676,4.499034708023071,4.825200000000001,4.7605947080230715C4.825200000000001,4.7605947080230715,6.23941,6.174804708023071,6.23941,6.174804708023071C6.23941,6.174804708023071,6.23941,6.174804708023071,6.23941,6.174804708023071ZM8.11436,3.9841247080230713C7.76343,3.8671547080230715,7.41286,3.741604708023071,7.05046,3.7204947080230713C7.05046,3.7204947080230713,6.93414,5.717114708023072,6.93414,5.717114708023072C6.96871,5.719124708023071,7.02304,5.728544708023071,7.4819,5.881494708023071C7.4819,5.881494708023071,8.11436,3.9841247080230713,8.11436,3.9841247080230713C8.11436,3.9841247080230713,8.11436,3.9841247080230713,8.11436,3.9841247080230713ZM6.65583,5.782814708023071C6.74022,5.734284708023072,6.83695,5.7114447080230715,6.93414,5.717114708023072C6.93414,5.717114708023072,7.05046,3.7204947080230713,7.05046,3.7204947080230713C6.56451,3.6921847080230714,6.08086,3.806354708023071,5.65887,4.049004708023071C5.65887,4.049004708023071,6.65583,5.782814708023071,6.65583,5.782814708023071C6.65583,5.782814708023071,6.65583,5.782814708023071,6.65583,5.782814708023071ZM19.207,19.20718470802307C19.4956,18.918484708023072,19.7938,18.63448470802307,19.9842,18.281384708023072C19.9842,18.281384708023072,18.2238,17.33218470802307,18.2238,17.33218470802307C18.2056,17.36588470802307,18.1706,17.41518470802307,17.7928,17.79298470802307C17.7928,17.79298470802307,19.207,19.20718470802307,19.207,19.20718470802307C19.207,19.20718470802307,19.207,19.20718470802307,19.207,19.20718470802307ZM18.104,16.47468470802307C18.273,16.98158470802307,18.2823,17.04128470802307,18.2835,17.079484708023074C18.2835,17.079484708023074,20.2825,17.017784708023072,20.2825,17.017784708023072C20.2701,16.616784708023072,20.1304,16.229484708023072,20.0014,15.84218470802307C20.0014,15.84218470802307,18.104,16.47468470802307,18.104,16.47468470802307C18.104,16.47468470802307,18.104,16.47468470802307,18.104,16.47468470802307ZM19.9842,18.281384708023072C20.1932,17.89378470802307,20.2961,17.457884708023073,20.2825,17.017784708023072C20.2825,17.017784708023072,18.2835,17.079484708023074,18.2835,17.079484708023074C18.2862,17.16748470802307,18.2656,17.25468470802307,18.2238,17.33218470802307C18.2238,17.33218470802307,19.9842,18.281384708023072,19.9842,18.281384708023072C19.9842,18.281384708023072,19.9842,18.281384708023072,19.9842,18.281384708023072ZM17.7928,17.79298470802307C17.415,18.17078470802307,17.3657,18.20578470802307,17.332,18.22398470802307C17.332,18.22398470802307,18.2812,19.98438470802307,18.2812,19.98438470802307C18.6343,19.79398470802307,18.9183,19.49578470802307,19.207,19.20718470802307C19.207,19.20718470802307,17.7928,17.79298470802307,17.7928,17.79298470802307C17.7928,17.79298470802307,17.7928,17.79298470802307,17.7928,17.79298470802307ZM15.842,20.00148470802307C16.229300000000002,20.130584708023072,16.6166,20.27028470802307,17.0176,20.282684708023073C17.0176,20.282684708023073,17.0793,18.28368470802307,17.0793,18.28368470802307C17.0411,18.28248470802307,16.9814,18.27308470802307,16.4745,18.10418470802307C16.4745,18.10418470802307,15.842,20.00148470802307,15.842,20.00148470802307C15.842,20.00148470802307,15.842,20.00148470802307,15.842,20.00148470802307ZM17.332,18.22398470802307C17.2545,18.26578470802307,17.1674,18.28638470802307,17.0793,18.28368470802307C17.0793,18.28368470802307,17.0176,20.282684708023073,17.0176,20.282684708023073C17.4578,20.296284708023073,17.8936,20.19338470802307,18.2812,19.98438470802307C18.2812,19.98438470802307,17.332,18.22398470802307,17.332,18.22398470802307C17.332,18.22398470802307,17.332,18.22398470802307,17.332,18.22398470802307ZM4.825200000000001,4.7605947080230715C4.54749,5.038304708023071,4.261620000000001,5.311174708023071,4.0755099999999995,5.645584708023071C4.0755099999999995,5.645584708023071,5.8230900000000005,6.618194708023071,5.8230900000000005,6.618194708023071C5.84074,6.586474708023071,5.87562,6.538594708023071,6.23941,6.174804708023071C6.23941,6.174804708023071,4.825200000000001,4.7605947080230715,4.825200000000001,4.7605947080230715C4.825200000000001,4.7605947080230715,4.825200000000001,4.7605947080230715,4.825200000000001,4.7605947080230715ZM5.9706399999999995,7.484274708023071C5.77956,7.006594708023071,5.766360000000001,6.948834708023071,5.76263,6.912734708023072C5.76263,6.912734708023072,3.77323,7.118294708023071,3.77323,7.118294708023071C3.81256,7.498984708023071,3.9678199999999997,7.862394708023071,4.1136800000000004,8.227054708023072C4.1136800000000004,8.227054708023072,5.9706399999999995,7.484274708023071,5.9706399999999995,7.484274708023071C5.9706399999999995,7.484274708023071,5.9706399999999995,7.484274708023071,5.9706399999999995,7.484274708023071ZM4.0755099999999995,5.645584708023071C3.8260300000000003,6.093844708023071,3.7205,6.6080047080230715,3.77323,7.118294708023071C3.77323,7.118294708023071,5.76263,6.912734708023072,5.76263,6.912734708023072C5.75209,6.810674708023071,5.77319,6.707844708023071,5.8230900000000005,6.618194708023071C5.8230900000000005,6.618194708023071,4.0755099999999995,5.645584708023071,4.0755099999999995,5.645584708023071C4.0755099999999995,5.645584708023071,4.0755099999999995,5.645584708023071,4.0755099999999995,5.645584708023071ZM15.9479,6.071564708023072C15.9479,6.071564708023072,16.5183,5.881424708023071,16.5183,5.881424708023071C16.5183,5.881424708023071,15.8859,3.9840547080230713,15.8859,3.9840547080230713C15.8859,3.9840547080230713,15.3155,4.174194708023071,15.3155,4.174194708023071C15.3155,4.174194708023071,15.9479,6.071564708023072,15.9479,6.071564708023072C15.9479,6.071564708023072,15.9479,6.071564708023072,15.9479,6.071564708023072ZM5.896240000000001,16.474584708023073C5.896240000000001,16.474584708023073,6.11139,15.829084708023071,6.11139,15.829084708023071C6.11139,15.829084708023071,4.21402,15.19668470802307,4.21402,15.19668470802307C4.21402,15.19668470802307,3.99887,15.842084708023071,3.99887,15.842084708023071C3.99887,15.842084708023071,5.896240000000001,16.474584708023073,5.896240000000001,16.474584708023073C5.896240000000001,16.474584708023073,5.896240000000001,16.474584708023073,5.896240000000001,16.474584708023073ZM8.05273,17.92838470802307C8.05273,17.92838470802307,7.52575,18.10408470802307,7.52575,18.10408470802307C7.52575,18.10408470802307,8.15821,20.00148470802307,8.15821,20.00148470802307C8.15821,20.00148470802307,8.68519,19.825784708023072,8.68519,19.825784708023072C8.68519,19.825784708023072,8.05273,17.92838470802307,8.05273,17.92838470802307C8.05273,17.92838470802307,8.05273,17.92838470802307,8.05273,17.92838470802307ZM19.175,4.760514708023072C18.9135,4.498954708023071,18.6561,4.2298847080230715,18.3414,4.048934708023071C18.3414,4.048934708023071,17.3444,5.782734708023071,17.3444,5.782734708023071C17.3744,5.799994708023071,17.418799999999997,5.8327147080230715,17.7608,6.174734708023071C17.7608,6.174734708023071,19.175,4.760514708023072,19.175,4.760514708023072C19.175,4.760514708023072,19.175,4.760514708023072,19.175,4.760514708023072ZM16.5183,5.881424708023071C16.9772,5.728464708023072,17.0315,5.7190447080230715,17.0661,5.717034708023071C17.0661,5.717034708023071,16.9498,3.720414708023071,16.9498,3.720414708023071C16.587400000000002,3.7415247080230714,16.236800000000002,3.867074708023071,15.8859,3.9840547080230713C15.8859,3.9840547080230713,16.5183,5.881424708023071,16.5183,5.881424708023071C16.5183,5.881424708023071,16.5183,5.881424708023071,16.5183,5.881424708023071ZM18.3414,4.048934708023071C17.9194,3.8062747080230714,17.4357,3.6921047080230713,16.9498,3.720414708023071C16.9498,3.720414708023071,17.0661,5.717034708023071,17.0661,5.717034708023071C17.1633,5.7113747080230715,17.259999999999998,5.734204708023071,17.3444,5.782734708023071C17.3444,5.782734708023071,18.3414,4.048934708023071,18.3414,4.048934708023071C18.3414,4.048934708023071,18.3414,4.048934708023071,18.3414,4.048934708023071ZM6.20745,17.792884708023074C5.82963,17.415084708023073,5.79458,17.36578470802307,5.77642,17.33218470802307C5.77642,17.33218470802307,4.01601,18.281284708023072,4.01601,18.281284708023072C4.2064,18.63448470802307,4.50459,18.918484708023072,4.793229999999999,19.20708470802307C4.793229999999999,19.20708470802307,6.20745,17.792884708023074,6.20745,17.792884708023074C6.20745,17.792884708023074,6.20745,17.792884708023074,6.20745,17.792884708023074ZM3.9988799999999998,15.842084708023071C3.86979,16.22938470802307,3.7300899999999997,16.616784708023072,3.71772,17.017784708023072C3.71772,17.017784708023072,5.71676,17.07938470802307,5.71676,17.07938470802307C5.7179400000000005,17.04118470802307,5.72727,16.98148470802307,5.896240000000001,16.474584708023073C5.896240000000001,16.474584708023073,3.9988799999999998,15.842084708023071,3.9988799999999998,15.842084708023071C3.9988799999999998,15.842084708023071,3.9988799999999998,15.842084708023071,3.9988799999999998,15.842084708023071ZM5.77642,17.33218470802307C5.73463,17.25458470802307,5.71405,17.16748470802307,5.71676,17.07938470802307C5.71676,17.07938470802307,3.71772,17.017784708023072,3.71772,17.017784708023072C3.7041399999999998,17.457884708023073,3.8070399999999998,17.89378470802307,4.016,18.281284708023072C4.016,18.281284708023072,5.77642,17.33218470802307,5.77642,17.33218470802307C5.77642,17.33218470802307,5.77642,17.33218470802307,5.77642,17.33218470802307ZM4.793229999999999,19.20708470802307C5.08188,19.49578470802307,5.365880000000001,19.79388470802307,5.718999999999999,19.984284708023072C5.718999999999999,19.984284708023072,6.66818,18.22388470802307,6.66818,18.22388470802307C6.6345,18.20578470802307,6.58526,18.17068470802307,6.20745,17.792884708023074C6.20745,17.792884708023074,4.793229999999999,19.20708470802307,4.793229999999999,19.20708470802307C4.793229999999999,19.20708470802307,4.793229999999999,19.20708470802307,4.793229999999999,19.20708470802307ZM7.52575,18.10408470802307C7.01886,18.27308470802307,6.95915,18.28238470802307,6.9209,18.28358470802307C6.9209,18.28358470802307,6.98258,20.282584708023073,6.98258,20.282584708023073C7.38358,20.27028470802307,7.77095,20.130584708023072,8.15821,20.00148470802307C8.15821,20.00148470802307,7.52575,18.10408470802307,7.52575,18.10408470802307C7.52575,18.10408470802307,7.52575,18.10408470802307,7.52575,18.10408470802307ZM5.718999999999999,19.984284708023072C6.10658,20.19328470802307,6.54247,20.29618470802307,6.98258,20.282584708023073C6.98258,20.282584708023073,6.9209,18.28358470802307,6.9209,18.28358470802307C6.83287,18.28628470802307,6.74569,18.26568470802307,6.66818,18.22388470802307C6.66818,18.22388470802307,5.718999999999999,19.984284708023072,5.718999999999999,19.984284708023072C5.718999999999999,19.984284708023072,5.718999999999999,19.984284708023072,5.718999999999999,19.984284708023072ZM17.7608,6.174734708023071C18.1246,6.538524708023071,18.1595,6.586404708023071,18.1771,6.618114708023072C18.1771,6.618114708023072,19.9247,5.645514708023072,19.9247,5.645514708023072C19.7386,5.3111047080230716,19.4527,5.038234708023071,19.175,4.760514708023072C19.175,4.760514708023072,17.7608,6.174734708023071,17.7608,6.174734708023071C17.7608,6.174734708023071,17.7608,6.174734708023071,17.7608,6.174734708023071ZM19.8865,8.226974708023072C20.0324,7.862324708023071,20.1877,7.498904708023071,20.227,7.118214708023071C20.227,7.118214708023071,18.2376,6.912654708023071,18.2376,6.912654708023071C18.2339,6.948764708023071,18.2207,7.006514708023071,18.0296,7.484194708023071C18.0296,7.484194708023071,19.8865,8.226974708023072,19.8865,8.226974708023072C19.8865,8.226974708023072,19.8865,8.226974708023072,19.8865,8.226974708023072ZM18.1771,6.618114708023072C18.227,6.707764708023071,18.2481,6.810604708023071,18.2376,6.912654708023071C18.2376,6.912654708023071,20.227,7.118214708023071,20.227,7.118214708023071C20.2797,6.6079347080230715,20.1742,6.093774708023071,19.9247,5.645514708023072C19.9247,5.645514708023072,18.1771,6.618114708023072,18.1771,6.618114708023072C18.1771,6.618114708023072,18.1771,6.618114708023072,18.1771,6.618114708023072ZM3.92849,8.776894708023072C3.92849,8.776894708023072,3.6509799999999997,8.943434708023071,3.6509799999999997,8.943434708023071C3.6509799999999997,8.943434708023071,4.68013,10.658324708023072,4.68013,10.658324708023072C4.68013,10.658324708023072,4.95764,10.491784708023072,4.95764,10.491784708023072C4.95764,10.491784708023072,3.92849,8.776894708023072,3.92849,8.776894708023072C3.92849,8.776894708023072,3.92849,8.776894708023072,3.92849,8.776894708023072ZM20.3496,8.943384708023071C20.3496,8.943384708023071,20.0717,8.776664708023072,20.0717,8.776664708023072C20.0717,8.776664708023072,19.0427,10.491654708023072,19.0427,10.491654708023072C19.0427,10.491654708023072,19.3206,10.658374708023072,19.3206,10.658374708023072C19.3206,10.658374708023072,20.3496,8.943384708023071,20.3496,8.943384708023071C20.3496,8.943384708023071,20.3496,8.943384708023071,20.3496,8.943384708023071ZM4.00034,11.86626470802307C4.00034,11.298714708023072,4.0116499999999995,11.235984708023071,4.024039999999999,11.197184708023071C4.024039999999999,11.197184708023071,2.118835,10.588754708023071,2.118835,10.588754708023071C1.9890344,10.99520470802307,2.000344447,11.432924708023071,2.000344447,11.86626470802307C2.000344447,11.86626470802307,4.00034,11.86626470802307,4.00034,11.86626470802307C4.00034,11.86626470802307,4.00034,11.86626470802307,4.00034,11.86626470802307ZM3.65106,8.943384708023071C3.28282,9.16432470802307,2.9045009999999998,9.378214708023071,2.622915,9.698454708023071C2.622915,9.698454708023071,4.12485,11.019124708023071,4.12485,11.019124708023071C4.15191,10.98835470802307,4.19849,10.947304708023072,4.68005,10.658374708023072C4.68005,10.658374708023072,3.65106,8.943384708023071,3.65106,8.943384708023071C3.65106,8.943384708023071,3.65106,8.943384708023071,3.65106,8.943384708023071ZM4.024039999999999,11.197184708023071C4.0450099999999996,11.13151470802307,4.079330000000001,11.07089470802307,4.12485,11.019124708023071C4.12485,11.019124708023071,2.6229139999999997,9.698454708023071,2.6229139999999997,9.698454708023071C2.395311,9.95729470802307,2.223691,10.26040470802307,2.118835,10.588754708023071C2.118835,10.588754708023071,4.024039999999999,11.197184708023071,4.024039999999999,11.197184708023071C4.024039999999999,11.197184708023071,4.024039999999999,11.197184708023071,4.024039999999999,11.197184708023071ZM22.0003,11.86626470802307C22.0003,11.432924708023071,22.0116,10.99520470802307,21.8818,10.588754708023071C21.8818,10.588754708023071,19.9766,11.197184708023071,19.9766,11.197184708023071C19.989,11.235984708023071,20.0003,11.298714708023072,20.0003,11.86626470802307C20.0003,11.86626470802307,22.0003,11.86626470802307,22.0003,11.86626470802307C22.0003,11.86626470802307,22.0003,11.86626470802307,22.0003,11.86626470802307ZM19.3206,10.658374708023072C19.8022,10.947304708023072,19.8487,10.98835470802307,19.8758,11.019124708023071C19.8758,11.019124708023071,21.3777,9.698454708023071,21.3777,9.698454708023071C21.0961,9.378214708023071,20.7178,9.16432470802307,20.3496,8.943384708023071C20.3496,8.943384708023071,19.3206,10.658374708023072,19.3206,10.658374708023072C19.3206,10.658374708023072,19.3206,10.658374708023072,19.3206,10.658374708023072ZM21.8818,10.588754708023071C21.777,10.26040470802307,21.6053,9.95729470802307,21.3777,9.698454708023071C21.3777,9.698454708023071,19.8758,11.019124708023071,19.8758,11.019124708023071C19.9213,11.07089470802307,19.9556,11.13151470802307,19.9766,11.197184708023071C19.9766,11.197184708023071,21.8818,10.588754708023071,21.8818,10.588754708023071C21.8818,10.588754708023071,21.8818,10.588754708023071,21.8818,10.588754708023071ZM20.0003,11.86626470802307C20.0003,12.539884708023072,19.985,12.615684708023071,19.9688,12.659184708023071C19.9688,12.659184708023071,21.8426,13.35828470802307,21.8426,13.35828470802307C22.0156,12.894684708023071,22.0003,12.377784708023071,22.0003,11.86626470802307C22.0003,11.86626470802307,20.0003,11.86626470802307,20.0003,11.86626470802307C20.0003,11.86626470802307,20.0003,11.86626470802307,20.0003,11.86626470802307ZM19.863,15.031884708023071C20.3336,14.843684708023071,20.8155,14.667284708023072,21.1816,14.33468470802307C21.1816,14.33468470802307,19.8366,12.85448470802307,19.8366,12.85448470802307C19.8019,12.885984708023072,19.7391,12.927484708023071,19.1202,13.174984708023072C19.1202,13.174984708023072,19.863,15.031884708023071,19.863,15.031884708023071C19.863,15.031884708023071,19.863,15.031884708023071,19.863,15.031884708023071ZM19.9688,12.659184708023071C19.9409,12.733884708023071,19.8956,12.800884708023071,19.8366,12.85448470802307C19.8366,12.85448470802307,21.1816,14.33468470802307,21.1816,14.33468470802307C21.4766,14.066584708023072,21.7033,13.73178470802307,21.8426,13.35828470802307C21.8426,13.35828470802307,19.9688,12.659184708023071,19.9688,12.659184708023071C19.9688,12.659184708023071,19.9688,12.659184708023071,19.9688,12.659184708023071ZM2.000344447,11.86626470802307C2.000344447,12.377784708023071,1.9850644,12.894684708023071,2.158046,13.35828470802307C2.158046,13.35828470802307,4.03188,12.659184708023071,4.03188,12.659184708023071C4.01562,12.615684708023071,4.00034,12.539884708023072,4.00034,11.86626470802307C4.00034,11.86626470802307,2.000344447,11.86626470802307,2.000344447,11.86626470802307C2.000344447,11.86626470802307,2.000344447,11.86626470802307,2.000344447,11.86626470802307ZM4.88039,13.174984708023072C4.2615300000000005,12.927484708023071,4.19872,12.885984708023072,4.16409,12.85448470802307C4.16409,12.85448470802307,2.8190720000000002,14.33468470802307,2.8190720000000002,14.33468470802307C3.18512,14.667284708023072,3.66703,14.843684708023071,4.1376100000000005,15.031884708023071C4.1376100000000005,15.031884708023071,4.88039,13.174984708023072,4.88039,13.174984708023072C4.88039,13.174984708023072,4.88039,13.174984708023072,4.88039,13.174984708023072ZM2.158046,13.35828470802307C2.297392,13.73178470802307,2.524037,14.066584708023072,2.8190720000000002,14.33468470802307C2.8190720000000002,14.33468470802307,4.16409,12.85448470802307,4.16409,12.85448470802307C4.10508,12.800884708023071,4.05975,12.733884708023071,4.03188,12.659184708023071C4.03188,12.659184708023071,2.158046,13.35828470802307,2.158046,13.35828470802307C2.158046,13.35828470802307,2.158046,13.35828470802307,2.158046,13.35828470802307ZM14.0003,11.99998470802307C14.0003,13.10458470802307,13.1049,13.99998470802307,12.0003,13.99998470802307C12.0003,13.99998470802307,12.0003,15.99998470802307,12.0003,15.99998470802307C14.2094,15.99998470802307,16.0003,14.209084708023072,16.0003,11.99998470802307C16.0003,11.99998470802307,14.0003,11.99998470802307,14.0003,11.99998470802307C14.0003,11.99998470802307,14.0003,11.99998470802307,14.0003,11.99998470802307ZM12.0003,13.99998470802307C10.89577,13.99998470802307,10.00034,13.10458470802307,10.00034,11.99998470802307C10.00034,11.99998470802307,8.00034,11.99998470802307,8.00034,11.99998470802307C8.00034,14.209084708023072,9.7912,15.99998470802307,12.0003,15.99998470802307C12.0003,15.99998470802307,12.0003,13.99998470802307,12.0003,13.99998470802307C12.0003,13.99998470802307,12.0003,13.99998470802307,12.0003,13.99998470802307ZM10.00034,11.99998470802307C10.00034,10.895434708023071,10.89577,10.000004708023072,12.0003,10.000004708023072C12.0003,10.000004708023072,12.0003,8.00000470802307,12.0003,8.00000470802307C9.7912,8.00000470802307,8.00034,9.790864708023072,8.00034,11.99998470802307C8.00034,11.99998470802307,10.00034,11.99998470802307,10.00034,11.99998470802307C10.00034,11.99998470802307,10.00034,11.99998470802307,10.00034,11.99998470802307ZM12.0003,10.000004708023072C13.1049,10.000004708023072,14.0003,10.895434708023071,14.0003,11.99998470802307C14.0003,11.99998470802307,16.0003,11.99998470802307,16.0003,11.99998470802307C16.0003,9.790864708023072,14.2094,8.00000470802307,12.0003,8.00000470802307C12.0003,8.00000470802307,12.0003,10.000004708023072,12.0003,10.000004708023072C12.0003,10.000004708023072,12.0003,10.000004708023072,12.0003,10.000004708023072ZM19.7863,15.197084708023072C19.7641,15.13048470802307,19.7977,15.05808470802307,19.863,15.03198470802307C19.863,15.03198470802307,19.1203,13.174984708023072,19.1203,13.174984708023072C18.0718,13.594284708023071,17.5319,14.758284708023071,17.889,15.829584708023072C17.889,15.829584708023072,19.7863,15.197084708023072,19.7863,15.197084708023072C19.7863,15.197084708023072,19.7863,15.197084708023072,19.7863,15.197084708023072ZM10.87173,19.23588470802307C10.42638,18.12248470802307,9.190349999999999,17.54918470802307,8.05273,17.92838470802307C8.05273,17.92838470802307,8.68519,19.825784708023072,8.68519,19.825784708023072C8.818190000000001,19.781484708023072,8.962710000000001,19.848484708023072,9.01478,19.97868470802307C9.01478,19.97868470802307,10.87173,19.23588470802307,10.87173,19.23588470802307C10.87173,19.23588470802307,10.87173,19.23588470802307,10.87173,19.23588470802307ZM18.0296,7.484194708023071C17.5835,8.59947470802307,18.0127,9.873644708023072,19.0427,10.491654708023072C19.0427,10.491654708023072,20.0717,8.776664708023072,20.0717,8.776664708023072C19.8835,8.663714708023072,19.805,8.43082470802307,19.8865,8.226974708023072C19.8865,8.226974708023072,18.0296,7.484194708023071,18.0296,7.484194708023071C18.0296,7.484194708023071,18.0296,7.484194708023071,18.0296,7.484194708023071ZM9.01478,4.021324708023071C8.962679999999999,4.151564708023072,8.81811,4.218624708023071,8.68504,4.174284708023071C8.68504,4.174284708023071,8.05279,6.071724708023071,8.05279,6.071724708023071C9.19043,6.450794708023071,10.42638,5.877474708023071,10.87173,4.7641147080230715C10.87173,4.7641147080230715,9.01478,4.021324708023071,9.01478,4.021324708023071C9.01478,4.021324708023071,9.01478,4.021324708023071,9.01478,4.021324708023071ZM4.1136800000000004,8.227054708023072C4.19524,8.430944708023071,4.11678,8.663894708023072,3.92849,8.776894708023072C3.92849,8.776894708023072,4.95764,10.491784708023072,4.95764,10.491784708023072C5.98757,9.87368470802307,6.41674,8.599524708023072,5.9706399999999995,7.484274708023071C5.9706399999999995,7.484274708023071,4.1136800000000004,8.227054708023072,4.1136800000000004,8.227054708023072C4.1136800000000004,8.227054708023072,4.1136800000000004,8.227054708023072,4.1136800000000004,8.227054708023072ZM6.11139,15.829084708023071C6.46842,14.757984708023072,5.92867,13.594284708023071,4.88039,13.174984708023072C4.88039,13.174984708023072,4.1376100000000005,15.031884708023071,4.1376100000000005,15.031884708023071C4.20268,15.05798470802307,4.23618,15.130184708023071,4.21402,15.19668470802307C4.21402,15.19668470802307,6.11139,15.829084708023071,6.11139,15.829084708023071C6.11139,15.829084708023071,6.11139,15.829084708023071,6.11139,15.829084708023071ZM14.9859,19.97868470802307C15.0379,19.848584708023072,15.1824,19.781584708023072,15.3153,19.82588470802307C15.3153,19.82588470802307,15.948,17.928584708023074,15.948,17.928584708023074C14.8104,17.549284708023073,13.5743,18.12248470802307,13.1289,19.23588470802307C13.1289,19.23588470802307,14.9859,19.97868470802307,14.9859,19.97868470802307C14.9859,19.97868470802307,14.9859,19.97868470802307,14.9859,19.97868470802307ZM13.1289,4.7641147080230715C13.5743,5.877494708023072,14.8103,6.450764708023072,15.9479,6.071564708023072C15.9479,6.071564708023072,15.3155,4.174194708023071,15.3155,4.174194708023071C15.1824,4.218534708023071,15.0379,4.151504708023071,14.9859,4.021324708023071C14.9859,4.021324708023071,13.1289,4.7641147080230715,13.1289,4.7641147080230715C13.1289,4.7641147080230715,13.1289,4.7641147080230715,13.1289,4.7641147080230715Z" fill="#000000" fill-opacity="0.800000011920929"/></g></g></svg>