<svg xmlns="http://www.w3.org/2000/svg" xmlns:xlink="http://www.w3.org/1999/xlink" fill="none" version="1.1" width="24" height="24" viewBox="0 0 24 24"><defs><clipPath id="master_svg0_21_43383"><rect x="0" y="0" width="24" height="24" rx="0"/></clipPath></defs><g clip-path="url(#master_svg0_21_43383)"><g><path d="M12.905,3.06026C12.905,3.06026,13.185,2.100292,13.185,2.100292C13.185,2.100292,13.185,2.100292,13.185,2.100292C13.185,2.100292,12.905,3.06026,12.905,3.06026C12.905,3.06026,12.905,3.06026,12.905,3.06026ZM13.6657,3.57532C13.6657,3.57532,12.8784,4.19192,12.8784,4.19192C12.8784,4.19192,12.8784,4.19192,12.8784,4.19192C12.8784,4.19192,13.6657,3.57532,13.6657,3.57532C13.6657,3.57532,13.6657,3.57532,13.6657,3.57532ZM12.905,20.9402C12.905,20.9402,13.185,21.9001,13.185,21.9001C13.185,21.9001,13.185,21.9001,13.185,21.9001C13.185,21.9001,12.905,20.9402,12.905,20.9402C12.905,20.9402,12.905,20.9402,12.905,20.9402ZM13.6657,20.4251C13.6657,20.4251,14.453,21.0417,14.453,21.0417C14.453,21.0417,14.453,21.0417,14.453,21.0417C14.453,21.0417,13.6657,20.4251,13.6657,20.4251C13.6657,20.4251,13.6657,20.4251,13.6657,20.4251ZM11.09573,20.9402C11.09573,20.9402,10.81562,21.9001,10.81562,21.9001C10.81562,21.9001,10.81563,21.9001,10.81563,21.9001C10.81563,21.9001,11.09573,20.9402,11.09573,20.9402C11.09573,20.9402,11.09573,20.9402,11.09573,20.9402ZM10.33497,20.4251C10.33497,20.4251,9.54769,21.0417,9.54769,21.0417C9.54769,21.0417,9.54769,21.0417,9.54769,21.0417C9.54769,21.0417,10.33497,20.4251,10.33497,20.4251C10.33497,20.4251,10.33497,20.4251,10.33497,20.4251ZM11.09573,3.06026C11.09573,3.06026,11.37584,4.020239999999999,11.37584,4.020239999999999C11.37584,4.020239999999999,11.09573,3.06026,11.09573,3.06026C11.09573,3.06026,11.09573,3.06026,11.09573,3.06026ZM10.33497,3.57532C10.33497,3.57532,9.54769,2.958728,9.54769,2.958728C9.54769,2.958728,9.54769,2.958728,9.54769,2.958728C9.54769,2.958728,10.33497,3.57532,10.33497,3.57532C10.33497,3.57532,10.33497,3.57532,10.33497,3.57532ZM7.79813,4.9330300000000005C7.79813,4.9330300000000005,7.4819,5.88171,7.4819,5.88171C7.4819,5.88171,7.48201,5.88175,7.48201,5.88175C7.48201,5.88175,7.79813,4.9330300000000005,7.79813,4.9330300000000005C7.79813,4.9330300000000005,7.79813,4.9330300000000005,7.79813,4.9330300000000005ZM16.1582,19.0531C16.1582,19.0531,15.8419,20.0017,15.8419,20.0017C15.8419,20.0017,15.842,20.0017,15.842,20.0017C15.842,20.0017,16.1582,19.0531,16.1582,19.0531C16.1582,19.0531,16.1582,19.0531,16.1582,19.0531ZM19.0527,16.1586C19.0527,16.1586,20.0014,15.8424,20.0014,15.8424C20.0014,15.8424,19.0527,16.1586,19.0527,16.1586C19.0527,16.1586,19.0527,16.1586,19.0527,16.1586ZM6.15735,4.916119999999999C6.15735,4.916119999999999,6.65582,5.78303,6.65582,5.78303C6.65582,5.78303,6.65583,5.78303,6.65583,5.78303C6.65583,5.78303,6.15735,4.916119999999999,6.15735,4.916119999999999C6.15735,4.916119999999999,6.15735,4.916119999999999,6.15735,4.916119999999999ZM6.9923,4.71902C6.9923,4.71902,6.93414,5.7173300000000005,6.93414,5.7173300000000005C6.93414,5.7173300000000005,6.93414,5.7173300000000005,6.93414,5.7173300000000005C6.93414,5.7173300000000005,6.9923,4.71902,6.9923,4.71902C6.9923,4.71902,6.9923,4.71902,6.9923,4.71902ZM19.104,17.807000000000002C19.104,17.807000000000002,19.9842,18.2816,19.9842,18.2816C19.9842,18.2816,19.9842,18.2816,19.9842,18.2816C19.9842,18.2816,19.104,17.807000000000002,19.104,17.807000000000002C19.104,17.807000000000002,19.104,17.807000000000002,19.104,17.807000000000002ZM19.283,17.0489C19.283,17.0489,18.2835,17.079700000000003,18.2835,17.079700000000003C18.2835,17.079700000000003,18.2835,17.079700000000003,18.2835,17.079700000000003C18.2835,17.079700000000003,19.283,17.0489,19.283,17.0489C19.283,17.0489,19.283,17.0489,19.283,17.0489ZM17.8066,19.1044C17.8066,19.1044,18.2812,19.9846,18.2812,19.9846C18.2812,19.9846,18.2812,19.9846,18.2812,19.9846C18.2812,19.9846,17.8066,19.1044,17.8066,19.1044C17.8066,19.1044,17.8066,19.1044,17.8066,19.1044ZM17.0485,19.2834C17.0485,19.2834,17.0176,20.2829,17.0176,20.2829C17.0176,20.2829,17.0485,19.2834,17.0485,19.2834C17.0485,19.2834,17.0485,19.2834,17.0485,19.2834ZM4.9493,6.13211C4.9493,6.13211,5.8230900000000005,6.61841,5.8230900000000005,6.61841C5.8230900000000005,6.61841,5.8230900000000005,6.61841,5.8230900000000005,6.61841C5.8230900000000005,6.61841,4.9493,6.13211,4.9493,6.13211C4.9493,6.13211,4.9493,6.13211,4.9493,6.13211ZM4.76793,7.01573C4.76793,7.01573,3.77323,7.11851,3.77323,7.11851C3.77323,7.11851,3.77323,7.11851,3.77323,7.11851C3.77323,7.11851,4.76793,7.01573,4.76793,7.01573C4.76793,7.01573,4.76793,7.01573,4.76793,7.01573ZM16.2021,4.93295C16.2021,4.93295,16.5183,5.88164,16.5183,5.88164C16.5183,5.88164,16.5183,5.88164,16.5183,5.88164C16.5183,5.88164,16.2021,4.93295,16.2021,4.93295C16.2021,4.93295,16.2021,4.93295,16.2021,4.93295ZM4.94755,16.1586C4.94755,16.1586,5.896240000000001,16.474800000000002,5.896240000000001,16.474800000000002C5.896240000000001,16.474800000000002,5.896240000000001,16.474800000000002,5.896240000000001,16.474800000000002C5.896240000000001,16.474800000000002,4.94755,16.1586,4.94755,16.1586C4.94755,16.1586,4.94755,16.1586,4.94755,16.1586ZM7.84198,19.053C7.84198,19.053,7.52575,18.1043,7.52575,18.1043C7.52575,18.1043,7.52575,18.1043,7.52575,18.1043C7.52575,18.1043,7.84198,19.053,7.84198,19.053C7.84198,19.053,7.84198,19.053,7.84198,19.053ZM17.8429,4.91605C17.8429,4.91605,18.3414,4.04915,18.3414,4.04915C18.3414,4.04915,18.3414,4.04915,18.3414,4.04915C18.3414,4.04915,17.8429,4.91605,17.8429,4.91605C17.8429,4.91605,17.8429,4.91605,17.8429,4.91605ZM17.0079,4.71894C17.0079,4.71894,17.0661,5.71725,17.0661,5.71725C17.0661,5.71725,17.0661,5.71725,17.0661,5.71725C17.0661,5.71725,17.0079,4.71894,17.0079,4.71894C17.0079,4.71894,17.0079,4.71894,17.0079,4.71894ZM4.89621,17.8069C4.89621,17.8069,4.016,18.2815,4.016,18.2815C4.016,18.2815,4.01601,18.2815,4.01601,18.2815C4.01601,18.2815,4.89621,17.8069,4.89621,17.8069C4.89621,17.8069,4.89621,17.8069,4.89621,17.8069ZM4.71724,17.0488C4.71724,17.0488,5.71676,17.0796,5.71676,17.0796C5.71676,17.0796,5.71676,17.0796,5.71676,17.0796C5.71676,17.0796,4.71724,17.0488,4.71724,17.0488C4.71724,17.0488,4.71724,17.0488,4.71724,17.0488ZM6.19359,19.1043C6.19359,19.1043,5.718999999999999,19.9845,5.718999999999999,19.9845C5.718999999999999,19.9845,5.718999999999999,19.9845,5.718999999999999,19.9845C5.718999999999999,19.9845,6.19359,19.1043,6.19359,19.1043C6.19359,19.1043,6.19359,19.1043,6.19359,19.1043ZM6.95174,19.2833C6.95174,19.2833,6.98258,20.2828,6.98258,20.2828C6.98258,20.2828,6.98258,20.2828,6.98258,20.2828C6.98258,20.2828,6.95174,19.2833,6.95174,19.2833C6.95174,19.2833,6.95174,19.2833,6.95174,19.2833ZM19.0509,6.13203C19.0509,6.13203,18.1771,6.61833,18.1771,6.61833C18.1771,6.61833,18.1771,6.61833,18.1771,6.61833C18.1771,6.61833,19.0509,6.13203,19.0509,6.13203C19.0509,6.13203,19.0509,6.13203,19.0509,6.13203ZM19.2323,7.01565C19.2323,7.01565,20.227,7.11843,20.227,7.11843C20.227,7.11843,20.227,7.11843,20.227,7.11843C20.227,7.11843,19.2323,7.01565,19.2323,7.01565C19.2323,7.01565,19.2323,7.01565,19.2323,7.01565ZM4.16555,9.80109C4.16555,9.80109,4.68005,10.65859,4.68005,10.65859C4.68005,10.65859,4.68013,10.65854,4.68013,10.65854C4.68013,10.65854,4.16555,9.80109,4.16555,9.80109C4.16555,9.80109,4.16555,9.80109,4.16555,9.80109ZM19.8351,9.80109C19.8351,9.80109,19.3206,10.65859,19.3206,10.65859C19.3206,10.65859,19.3206,10.65859,19.3206,10.65859C19.3206,10.65859,19.8351,9.80109,19.8351,9.80109C19.8351,9.80109,19.8351,9.80109,19.8351,9.80109ZM3.07144,10.89318C3.07144,10.89318,4.024039999999999,11.1974,4.024039999999999,11.1974C4.024039999999999,11.1974,4.024039999999999,11.1974,4.024039999999999,11.1974C4.024039999999999,11.1974,3.07144,10.89318,3.07144,10.89318C3.07144,10.89318,3.07144,10.89318,3.07144,10.89318ZM3.3738900000000003,10.359C3.3738900000000003,10.359,2.622915,9.69867,2.622915,9.69867C2.622915,9.69867,2.6229139999999997,9.69867,2.6229139999999997,9.69867C2.6229139999999997,9.69867,3.3738900000000003,10.359,3.3738900000000003,10.359C3.3738900000000003,10.359,3.3738900000000003,10.359,3.3738900000000003,10.359ZM20.9292,10.89318C20.9292,10.89318,19.9766,11.1974,19.9766,11.1974C19.9766,11.1974,19.9766,11.1974,19.9766,11.1974C19.9766,11.1974,20.9292,10.89318,20.9292,10.89318C20.9292,10.89318,20.9292,10.89318,20.9292,10.89318ZM20.6268,10.359C20.6268,10.359,19.8758,11.01934,19.8758,11.01934C19.8758,11.01934,19.8758,11.01934,19.8758,11.01934C19.8758,11.01934,20.6268,10.359,20.6268,10.359C20.6268,10.359,20.6268,10.359,20.6268,10.359ZM20.9057,13.009C20.9057,13.009,19.9688,12.6594,19.9688,12.6594C19.9688,12.6594,19.9688,12.6594,19.9688,12.6594C19.9688,12.6594,20.9057,13.009,20.9057,13.009C20.9057,13.009,20.9057,13.009,20.9057,13.009ZM20.5091,13.5948C20.5091,13.5948,19.8366,12.8547,19.8366,12.8547C19.8366,12.8547,19.8366,12.8547,19.8366,12.8547C19.8366,12.8547,20.5091,13.5948,20.5091,13.5948C20.5091,13.5948,20.5091,13.5948,20.5091,13.5948ZM3.09497,13.009C3.09497,13.009,4.03188,12.6594,4.03188,12.6594C4.03188,12.6594,4.03188,12.6594,4.03188,12.6594C4.03188,12.6594,3.09497,13.009,3.09497,13.009C3.09497,13.009,3.09497,13.009,3.09497,13.009ZM3.49158,13.5948C3.49158,13.5948,2.8190720000000002,14.3349,2.8190720000000002,14.3349C2.8190720000000002,14.3349,2.8190720000000002,14.3349,2.8190720000000002,14.3349C2.8190720000000002,14.3349,3.49158,13.5948,3.49158,13.5948C3.49158,13.5948,3.49158,13.5948,3.49158,13.5948ZM18.8377,15.5136C18.8377,15.5136,19.7863,15.1973,19.7863,15.1973C19.7863,15.1973,18.8377,15.5136,18.8377,15.5136C18.8377,15.5136,18.8377,15.5136,18.8377,15.5136ZM8.368960000000001,18.8773C8.368960000000001,18.8773,8.05273,17.9286,8.05273,17.9286C8.05273,17.9286,8.368960000000001,18.8773,8.368960000000001,18.8773C8.368960000000001,18.8773,8.368960000000001,18.8773,8.368960000000001,18.8773ZM19.5572,9.63438C19.5572,9.63438,19.0427,10.49187,19.0427,10.49187C19.0427,10.49187,19.5572,9.63438,19.5572,9.63438C19.5572,9.63438,19.5572,9.63438,19.5572,9.63438ZM8.36891,5.12322C8.36891,5.12322,8.05279,6.07194,8.05279,6.07194C8.05279,6.07194,8.36891,5.12322,8.36891,5.12322C8.36891,5.12322,8.36891,5.12322,8.36891,5.12322ZM5.1627,15.5131C5.1627,15.5131,4.21402,15.1969,4.21402,15.1969C4.21402,15.1969,5.1627,15.5131,5.1627,15.5131C5.1627,15.5131,5.1627,15.5131,5.1627,15.5131ZM15.6316,18.8775C15.6316,18.8775,15.3153,19.8261,15.3153,19.8261C15.3153,19.8261,15.6316,18.8775,15.6316,18.8775C15.6316,18.8775,15.6316,18.8775,15.6316,18.8775ZM15.6317,5.1230899999999995C15.6317,5.1230899999999995,15.9479,6.07178,15.9479,6.07178C15.9479,6.07178,15.6317,5.1230899999999995,15.6317,5.1230899999999995C15.6317,5.1230899999999995,15.6317,5.1230899999999995,15.6317,5.1230899999999995ZM12.0003,4.0002200000000006C12.5289,4.0002200000000006,12.5893,4.00986,12.6248,4.020239999999999C12.6248,4.020239999999999,13.185,2.100292,13.185,2.100292C12.8091,1.99057534,12.4035,2.000215344,12.0003,2.000215344C12.0003,2.000215344,12.0003,4.0002200000000006,12.0003,4.0002200000000006C12.0003,4.0002200000000006,12.0003,4.0002200000000006,12.0003,4.0002200000000006ZM14.9859,4.0215499999999995C14.8361,3.64719,14.6945,3.26709,14.453,2.958728C14.453,2.958728,12.8784,4.19192,12.8784,4.19192C12.9013,4.22109,12.9326,4.27356,13.1289,4.76433C13.1289,4.76433,14.9859,4.0215499999999995,14.9859,4.0215499999999995C14.9859,4.0215499999999995,14.9859,4.0215499999999995,14.9859,4.0215499999999995ZM12.6248,4.020239999999999C12.7253,4.04953,12.8139,4.109579999999999,12.8784,4.19192C12.8784,4.19192,14.453,2.958728,14.453,2.958728C14.1305,2.547009,13.687,2.246777,13.185,2.100292C13.185,2.100292,12.6248,4.020239999999999,12.6248,4.020239999999999C12.6248,4.020239999999999,12.6248,4.020239999999999,12.6248,4.020239999999999ZM12.0003,22.0002C12.4035,22.0002,12.8091,22.0098,13.185,21.9001C13.185,21.9001,12.6249,19.9802,12.6249,19.9802C12.5893,19.9906,12.5289,20.0002,12.0003,20.0002C12.0003,20.0002,12.0003,22.0002,12.0003,22.0002C12.0003,22.0002,12.0003,22.0002,12.0003,22.0002ZM13.1289,19.2361C12.9326,19.7269,12.9013,19.7793,12.8784,19.8085C12.8784,19.8085,14.453,21.0417,14.453,21.0417C14.6945,20.7333,14.8361,20.3532,14.9859,19.9789C14.9859,19.9789,13.1289,19.2361,13.1289,19.2361C13.1289,19.2361,13.1289,19.2361,13.1289,19.2361ZM13.185,21.9001C13.687,21.7536,14.1305,21.4534,14.453,21.0417C14.453,21.0417,12.8784,19.8085,12.8784,19.8085C12.8139,19.8908,12.7253,19.9509,12.6248,19.9802C12.6248,19.9802,13.185,21.9001,13.185,21.9001C13.185,21.9001,13.185,21.9001,13.185,21.9001ZM12.0003,20.0002C11.47177,20.0002,11.41141,19.9906,11.37583,19.9802C11.37583,19.9802,10.81563,21.9001,10.81563,21.9001C11.19163,22.0098,11.59715,22.0002,12.0003,22.0002C12.0003,22.0002,12.0003,20.0002,12.0003,20.0002C12.0003,20.0002,12.0003,20.0002,12.0003,20.0002ZM9.01478,19.9789C9.16452,20.3532,9.306180000000001,20.7333,9.54769,21.0417C9.54769,21.0417,11.12225,19.8085,11.12225,19.8085C11.0994,19.7793,11.06804,19.7269,10.87173,19.2361C10.87173,19.2361,9.01478,19.9789,9.01478,19.9789C9.01478,19.9789,9.01478,19.9789,9.01478,19.9789ZM11.37584,19.9802C11.27543,19.9509,11.18674,19.8908,11.12225,19.8085C11.12225,19.8085,9.54769,21.0417,9.54769,21.0417C9.870149999999999,21.4534,10.3136,21.7536,10.81562,21.9001C10.81562,21.9001,11.37584,19.9802,11.37584,19.9802C11.37584,19.9802,11.37584,19.9802,11.37584,19.9802ZM12.0003,2.000215344C11.59715,2.000215344,11.19163,1.99057534,10.81563,2.100292C10.81563,2.100292,11.37584,4.020239999999999,11.37584,4.020239999999999C11.41141,4.00986,11.47177,4.0002200000000006,12.0003,4.0002200000000006C12.0003,4.0002200000000006,12.0003,2.000215344,12.0003,2.000215344C12.0003,2.000215344,12.0003,2.000215344,12.0003,2.000215344ZM10.87173,4.76433C11.06804,4.27356,11.0994,4.22109,11.12225,4.19192C11.12225,4.19192,9.54769,2.958728,9.54769,2.958728C9.306180000000001,3.26709,9.16452,3.64719,9.01478,4.02154C9.01478,4.02154,10.87173,4.76433,10.87173,4.76433C10.87173,4.76433,10.87173,4.76433,10.87173,4.76433ZM10.81563,2.100292C10.3136,2.246777,9.87014,2.547009,9.54769,2.958728C9.54769,2.958728,11.12225,4.19192,11.12225,4.19192C11.18674,4.109579999999999,11.27543,4.04953,11.37584,4.020239999999999C11.37584,4.020239999999999,10.81563,2.100292,10.81563,2.100292C10.81563,2.100292,10.81563,2.100292,10.81563,2.100292ZM8.68504,4.1745C8.68504,4.1745,8.11425,3.98431,8.11425,3.98431C8.11425,3.98431,7.48201,5.88175,7.48201,5.88175C7.48201,5.88175,8.05279,6.07194,8.05279,6.07194C8.05279,6.07194,8.68504,4.1745,8.68504,4.1745C8.68504,4.1745,8.68504,4.1745,8.68504,4.1745ZM15.3153,19.8261C15.3153,19.8261,15.8419,20.0017,15.8419,20.0017C15.8419,20.0017,16.474600000000002,18.1044,16.474600000000002,18.1044C16.474600000000002,18.1044,15.948,17.928800000000003,15.948,17.928800000000003C15.948,17.928800000000003,15.3153,19.8261,15.3153,19.8261C15.3153,19.8261,15.3153,19.8261,15.3153,19.8261ZM20.0014,15.8424C20.0014,15.8424,19.7863,15.1973,19.7863,15.1973C19.7863,15.1973,17.889,15.8298,17.889,15.8298C17.889,15.8298,18.104,16.474899999999998,18.104,16.474899999999998C18.104,16.474899999999998,20.0014,15.8424,20.0014,15.8424C20.0014,15.8424,20.0014,15.8424,20.0014,15.8424ZM6.23941,6.17502C6.58143,5.83301,6.62581,5.80029,6.65582,5.78303C6.65582,5.78303,5.65887,4.04922,5.65887,4.04922C5.34418,4.23017,5.08676,4.49925,4.825200000000001,4.76081C4.825200000000001,4.76081,6.23941,6.17502,6.23941,6.17502C6.23941,6.17502,6.23941,6.17502,6.23941,6.17502ZM8.11436,3.98434C7.76343,3.86737,7.41286,3.7418199999999997,7.05046,3.72071C7.05046,3.72071,6.93414,5.7173300000000005,6.93414,5.7173300000000005C6.96871,5.71934,7.02304,5.728759999999999,7.4819,5.88171C7.4819,5.88171,8.11436,3.98434,8.11436,3.98434C8.11436,3.98434,8.11436,3.98434,8.11436,3.98434ZM6.65583,5.78303C6.74022,5.734500000000001,6.83695,5.71166,6.93414,5.7173300000000005C6.93414,5.7173300000000005,7.05046,3.72071,7.05046,3.72071C6.56451,3.6924,6.08086,3.80657,5.65887,4.04922C5.65887,4.04922,6.65583,5.78303,6.65583,5.78303C6.65583,5.78303,6.65583,5.78303,6.65583,5.78303ZM19.207,19.2074C19.4956,18.9187,19.7938,18.6347,19.9842,18.2816C19.9842,18.2816,18.2238,17.3324,18.2238,17.3324C18.2056,17.3661,18.1706,17.415399999999998,17.7928,17.7932C17.7928,17.7932,19.207,19.2074,19.207,19.2074C19.207,19.2074,19.207,19.2074,19.207,19.2074ZM18.104,16.474899999999998C18.273,16.9818,18.2823,17.0415,18.2835,17.079700000000003C18.2835,17.079700000000003,20.2825,17.018,20.2825,17.018C20.2701,16.617,20.1304,16.2297,20.0014,15.8424C20.0014,15.8424,18.104,16.474899999999998,18.104,16.474899999999998C18.104,16.474899999999998,18.104,16.474899999999998,18.104,16.474899999999998ZM19.9842,18.2816C20.1932,17.894,20.2961,17.4581,20.2825,17.018C20.2825,17.018,18.2835,17.079700000000003,18.2835,17.079700000000003C18.2862,17.1677,18.2656,17.2549,18.2238,17.3324C18.2238,17.3324,19.9842,18.2816,19.9842,18.2816C19.9842,18.2816,19.9842,18.2816,19.9842,18.2816ZM17.7928,17.7932C17.415,18.171,17.3657,18.206,17.332,18.2242C17.332,18.2242,18.2812,19.9846,18.2812,19.9846C18.6343,19.7942,18.9183,19.496,19.207,19.2074C19.207,19.2074,17.7928,17.7932,17.7928,17.7932C17.7928,17.7932,17.7928,17.7932,17.7928,17.7932ZM15.842,20.0017C16.229300000000002,20.1308,16.6166,20.2705,17.0176,20.2829C17.0176,20.2829,17.0793,18.2839,17.0793,18.2839C17.0411,18.2827,16.9814,18.2733,16.4745,18.1044C16.4745,18.1044,15.842,20.0017,15.842,20.0017C15.842,20.0017,15.842,20.0017,15.842,20.0017ZM17.332,18.2242C17.2545,18.266,17.1674,18.2866,17.0793,18.2839C17.0793,18.2839,17.0176,20.2829,17.0176,20.2829C17.4578,20.2965,17.8936,20.1936,18.2812,19.9846C18.2812,19.9846,17.332,18.2242,17.332,18.2242C17.332,18.2242,17.332,18.2242,17.332,18.2242ZM4.825200000000001,4.76081C4.54749,5.03852,4.261620000000001,5.311389999999999,4.0755099999999995,5.6457999999999995C4.0755099999999995,5.6457999999999995,5.8230900000000005,6.61841,5.8230900000000005,6.61841C5.84074,6.58669,5.87562,6.53881,6.23941,6.17502C6.23941,6.17502,4.825200000000001,4.76081,4.825200000000001,4.76081C4.825200000000001,4.76081,4.825200000000001,4.76081,4.825200000000001,4.76081ZM5.9706399999999995,7.48449C5.77956,7.00681,5.766360000000001,6.94905,5.76263,6.91295C5.76263,6.91295,3.77323,7.11851,3.77323,7.11851C3.81256,7.4992,3.9678199999999997,7.86261,4.1136800000000004,8.22727C4.1136800000000004,8.22727,5.9706399999999995,7.48449,5.9706399999999995,7.48449C5.9706399999999995,7.48449,5.9706399999999995,7.48449,5.9706399999999995,7.48449ZM4.0755099999999995,5.6457999999999995C3.8260300000000003,6.09406,3.7205,6.60822,3.77323,7.11851C3.77323,7.11851,5.76263,6.91295,5.76263,6.91295C5.75209,6.81089,5.77319,6.70806,5.8230900000000005,6.61841C5.8230900000000005,6.61841,4.0755099999999995,5.6457999999999995,4.0755099999999995,5.6457999999999995C4.0755099999999995,5.6457999999999995,4.0755099999999995,5.6457999999999995,4.0755099999999995,5.6457999999999995ZM15.9479,6.07178C15.9479,6.07178,16.5183,5.88164,16.5183,5.88164C16.5183,5.88164,15.8859,3.98427,15.8859,3.98427C15.8859,3.98427,15.3155,4.17441,15.3155,4.17441C15.3155,4.17441,15.9479,6.07178,15.9479,6.07178C15.9479,6.07178,15.9479,6.07178,15.9479,6.07178ZM5.896240000000001,16.474800000000002C5.896240000000001,16.474800000000002,6.11139,15.8293,6.11139,15.8293C6.11139,15.8293,4.21402,15.1969,4.21402,15.1969C4.21402,15.1969,3.99887,15.8423,3.99887,15.8423C3.99887,15.8423,5.896240000000001,16.474800000000002,5.896240000000001,16.474800000000002C5.896240000000001,16.474800000000002,5.896240000000001,16.474800000000002,5.896240000000001,16.474800000000002ZM8.05273,17.9286C8.05273,17.9286,7.52575,18.1043,7.52575,18.1043C7.52575,18.1043,8.15821,20.0017,8.15821,20.0017C8.15821,20.0017,8.68519,19.826,8.68519,19.826C8.68519,19.826,8.05273,17.9286,8.05273,17.9286C8.05273,17.9286,8.05273,17.9286,8.05273,17.9286ZM19.175,4.760730000000001C18.9135,4.4991699999999994,18.6561,4.2301,18.3414,4.04915C18.3414,4.04915,17.3444,5.78295,17.3444,5.78295C17.3744,5.80021,17.418799999999997,5.83293,17.7608,6.17495C17.7608,6.17495,19.175,4.760730000000001,19.175,4.760730000000001C19.175,4.760730000000001,19.175,4.760730000000001,19.175,4.760730000000001ZM16.5183,5.88164C16.9772,5.728680000000001,17.0315,5.71926,17.0661,5.71725C17.0661,5.71725,16.9498,3.72063,16.9498,3.72063C16.587400000000002,3.74174,16.236800000000002,3.8672899999999997,15.8859,3.98427C15.8859,3.98427,16.5183,5.88164,16.5183,5.88164C16.5183,5.88164,16.5183,5.88164,16.5183,5.88164ZM18.3414,4.04915C17.9194,3.80649,17.4357,3.69232,16.9498,3.72063C16.9498,3.72063,17.0661,5.71725,17.0661,5.71725C17.1633,5.71159,17.259999999999998,5.73442,17.3444,5.78295C17.3444,5.78295,18.3414,4.04915,18.3414,4.04915C18.3414,4.04915,18.3414,4.04915,18.3414,4.04915ZM6.20745,17.793100000000003C5.82963,17.415300000000002,5.79458,17.366,5.77642,17.3324C5.77642,17.3324,4.01601,18.2815,4.01601,18.2815C4.2064,18.6347,4.50459,18.9187,4.793229999999999,19.2073C4.793229999999999,19.2073,6.20745,17.793100000000003,6.20745,17.793100000000003C6.20745,17.793100000000003,6.20745,17.793100000000003,6.20745,17.793100000000003ZM3.9988799999999998,15.8423C3.86979,16.229599999999998,3.7300899999999997,16.617,3.71772,17.018C3.71772,17.018,5.71676,17.0796,5.71676,17.0796C5.7179400000000005,17.0414,5.72727,16.9817,5.896240000000001,16.474800000000002C5.896240000000001,16.474800000000002,3.9988799999999998,15.8423,3.9988799999999998,15.8423C3.9988799999999998,15.8423,3.9988799999999998,15.8423,3.9988799999999998,15.8423ZM5.77642,17.3324C5.73463,17.2548,5.71405,17.1677,5.71676,17.0796C5.71676,17.0796,3.71772,17.018,3.71772,17.018C3.7041399999999998,17.4581,3.8070399999999998,17.894,4.016,18.2815C4.016,18.2815,5.77642,17.3324,5.77642,17.3324C5.77642,17.3324,5.77642,17.3324,5.77642,17.3324ZM4.793229999999999,19.2073C5.08188,19.496,5.365880000000001,19.7941,5.718999999999999,19.9845C5.718999999999999,19.9845,6.66818,18.2241,6.66818,18.2241C6.6345,18.206,6.58526,18.1709,6.20745,17.793100000000003C6.20745,17.793100000000003,4.793229999999999,19.2073,4.793229999999999,19.2073C4.793229999999999,19.2073,4.793229999999999,19.2073,4.793229999999999,19.2073ZM7.52575,18.1043C7.01886,18.2733,6.95915,18.2826,6.9209,18.2838C6.9209,18.2838,6.98258,20.2828,6.98258,20.2828C7.38358,20.2705,7.77095,20.1308,8.15821,20.0017C8.15821,20.0017,7.52575,18.1043,7.52575,18.1043C7.52575,18.1043,7.52575,18.1043,7.52575,18.1043ZM5.718999999999999,19.9845C6.10658,20.1935,6.54247,20.2964,6.98258,20.2828C6.98258,20.2828,6.9209,18.2838,6.9209,18.2838C6.83287,18.2865,6.74569,18.2659,6.66818,18.2241C6.66818,18.2241,5.718999999999999,19.9845,5.718999999999999,19.9845C5.718999999999999,19.9845,5.718999999999999,19.9845,5.718999999999999,19.9845ZM17.7608,6.17495C18.1246,6.53874,18.1595,6.58662,18.1771,6.61833C18.1771,6.61833,19.9247,5.64573,19.9247,5.64573C19.7386,5.31132,19.4527,5.03845,19.175,4.760730000000001C19.175,4.760730000000001,17.7608,6.17495,17.7608,6.17495C17.7608,6.17495,17.7608,6.17495,17.7608,6.17495ZM19.8865,8.22719C20.0324,7.86254,20.1877,7.49912,20.227,7.11843C20.227,7.11843,18.2376,6.91287,18.2376,6.91287C18.2339,6.94898,18.2207,7.00673,18.0296,7.48441C18.0296,7.48441,19.8865,8.22719,19.8865,8.22719C19.8865,8.22719,19.8865,8.22719,19.8865,8.22719ZM18.1771,6.61833C18.227,6.70798,18.2481,6.81082,18.2376,6.91287C18.2376,6.91287,20.227,7.11843,20.227,7.11843C20.2797,6.60815,20.1742,6.09399,19.9247,5.64573C19.9247,5.64573,18.1771,6.61833,18.1771,6.61833C18.1771,6.61833,18.1771,6.61833,18.1771,6.61833ZM3.92849,8.77711C3.92849,8.77711,3.6509799999999997,8.94365,3.6509799999999997,8.94365C3.6509799999999997,8.94365,4.68013,10.65854,4.68013,10.65854C4.68013,10.65854,4.95764,10.492,4.95764,10.492C4.95764,10.492,3.92849,8.77711,3.92849,8.77711C3.92849,8.77711,3.92849,8.77711,3.92849,8.77711ZM20.3496,8.9436C20.3496,8.9436,20.0717,8.77688,20.0717,8.77688C20.0717,8.77688,19.0427,10.49187,19.0427,10.49187C19.0427,10.49187,19.3206,10.65859,19.3206,10.65859C19.3206,10.65859,20.3496,8.9436,20.3496,8.9436C20.3496,8.9436,20.3496,8.9436,20.3496,8.9436ZM4.00034,11.86648C4.00034,11.29893,4.0116499999999995,11.2362,4.024039999999999,11.1974C4.024039999999999,11.1974,2.118835,10.58897,2.118835,10.58897C1.9890344,10.99542,2.000344447,11.43314,2.000344447,11.86648C2.000344447,11.86648,4.00034,11.86648,4.00034,11.86648C4.00034,11.86648,4.00034,11.86648,4.00034,11.86648ZM3.65106,8.9436C3.28282,9.164539999999999,2.9045009999999998,9.37843,2.622915,9.69867C2.622915,9.69867,4.12485,11.01934,4.12485,11.01934C4.15191,10.98857,4.19849,10.94752,4.68005,10.65859C4.68005,10.65859,3.65106,8.9436,3.65106,8.9436C3.65106,8.9436,3.65106,8.9436,3.65106,8.9436ZM4.024039999999999,11.1974C4.0450099999999996,11.13173,4.079330000000001,11.07111,4.12485,11.01934C4.12485,11.01934,2.6229139999999997,9.69867,2.6229139999999997,9.69867C2.395311,9.95751,2.223691,10.26062,2.118835,10.58897C2.118835,10.58897,4.024039999999999,11.1974,4.024039999999999,11.1974C4.024039999999999,11.1974,4.024039999999999,11.1974,4.024039999999999,11.1974ZM22.0003,11.86648C22.0003,11.43314,22.0116,10.99542,21.8818,10.58897C21.8818,10.58897,19.9766,11.1974,19.9766,11.1974C19.989,11.2362,20.0003,11.29893,20.0003,11.86648C20.0003,11.86648,22.0003,11.86648,22.0003,11.86648C22.0003,11.86648,22.0003,11.86648,22.0003,11.86648ZM19.3206,10.65859C19.8022,10.94752,19.8487,10.98857,19.8758,11.01934C19.8758,11.01934,21.3777,9.69867,21.3777,9.69867C21.0961,9.37843,20.7178,9.164539999999999,20.3496,8.9436C20.3496,8.9436,19.3206,10.65859,19.3206,10.65859C19.3206,10.65859,19.3206,10.65859,19.3206,10.65859ZM21.8818,10.58897C21.777,10.26062,21.6053,9.95751,21.3777,9.69867C21.3777,9.69867,19.8758,11.01934,19.8758,11.01934C19.9213,11.07111,19.9556,11.13173,19.9766,11.1974C19.9766,11.1974,21.8818,10.58897,21.8818,10.58897C21.8818,10.58897,21.8818,10.58897,21.8818,10.58897ZM20.0003,11.86648C20.0003,12.5401,19.985,12.6159,19.9688,12.6594C19.9688,12.6594,21.8426,13.3585,21.8426,13.3585C22.0156,12.8949,22.0003,12.378,22.0003,11.86648C22.0003,11.86648,20.0003,11.86648,20.0003,11.86648C20.0003,11.86648,20.0003,11.86648,20.0003,11.86648ZM19.863,15.0321C20.3336,14.8439,20.8155,14.6675,21.1816,14.3349C21.1816,14.3349,19.8366,12.8547,19.8366,12.8547C19.8019,12.8862,19.7391,12.9277,19.1202,13.1752C19.1202,13.1752,19.863,15.0321,19.863,15.0321C19.863,15.0321,19.863,15.0321,19.863,15.0321ZM19.9688,12.6594C19.9409,12.7341,19.8956,12.8011,19.8366,12.8547C19.8366,12.8547,21.1816,14.3349,21.1816,14.3349C21.4766,14.0668,21.7033,13.732,21.8426,13.3585C21.8426,13.3585,19.9688,12.6594,19.9688,12.6594C19.9688,12.6594,19.9688,12.6594,19.9688,12.6594ZM2.000344447,11.86648C2.000344447,12.378,1.9850644,12.8949,2.158046,13.3585C2.158046,13.3585,4.03188,12.6594,4.03188,12.6594C4.01562,12.6159,4.00034,12.5401,4.00034,11.86648C4.00034,11.86648,2.000344447,11.86648,2.000344447,11.86648C2.000344447,11.86648,2.000344447,11.86648,2.000344447,11.86648ZM4.88039,13.1752C4.2615300000000005,12.9277,4.19872,12.8862,4.16409,12.8547C4.16409,12.8547,2.8190720000000002,14.3349,2.8190720000000002,14.3349C3.18512,14.6675,3.66703,14.8439,4.1376100000000005,15.0321C4.1376100000000005,15.0321,4.88039,13.1752,4.88039,13.1752C4.88039,13.1752,4.88039,13.1752,4.88039,13.1752ZM2.158046,13.3585C2.297392,13.732,2.524037,14.0668,2.8190720000000002,14.3349C2.8190720000000002,14.3349,4.16409,12.8547,4.16409,12.8547C4.10508,12.8011,4.05975,12.7341,4.03188,12.6594C4.03188,12.6594,2.158046,13.3585,2.158046,13.3585C2.158046,13.3585,2.158046,13.3585,2.158046,13.3585ZM14.0003,12.0002C14.0003,13.1048,13.1049,14.0002,12.0003,14.0002C12.0003,14.0002,12.0003,16.0002,12.0003,16.0002C14.2094,16.0002,16.0003,14.2093,16.0003,12.0002C16.0003,12.0002,14.0003,12.0002,14.0003,12.0002C14.0003,12.0002,14.0003,12.0002,14.0003,12.0002ZM12.0003,14.0002C10.89577,14.0002,10.00034,13.1048,10.00034,12.0002C10.00034,12.0002,8.00034,12.0002,8.00034,12.0002C8.00034,14.2093,9.7912,16.0002,12.0003,16.0002C12.0003,16.0002,12.0003,14.0002,12.0003,14.0002C12.0003,14.0002,12.0003,14.0002,12.0003,14.0002ZM10.00034,12.0002C10.00034,10.89565,10.89577,10.00022,12.0003,10.00022C12.0003,10.00022,12.0003,8.000219999999999,12.0003,8.000219999999999C9.7912,8.000219999999999,8.00034,9.791080000000001,8.00034,12.0002C8.00034,12.0002,10.00034,12.0002,10.00034,12.0002C10.00034,12.0002,10.00034,12.0002,10.00034,12.0002ZM12.0003,10.00022C13.1049,10.00022,14.0003,10.89565,14.0003,12.0002C14.0003,12.0002,16.0003,12.0002,16.0003,12.0002C16.0003,9.791080000000001,14.2094,8.000219999999999,12.0003,8.000219999999999C12.0003,8.000219999999999,12.0003,10.00022,12.0003,10.00022C12.0003,10.00022,12.0003,10.00022,12.0003,10.00022ZM19.7863,15.1973C19.7641,15.1307,19.7977,15.0583,19.863,15.0322C19.863,15.0322,19.1203,13.1752,19.1203,13.1752C18.0718,13.5945,17.5319,14.7585,17.889,15.8298C17.889,15.8298,19.7863,15.1973,19.7863,15.1973C19.7863,15.1973,19.7863,15.1973,19.7863,15.1973ZM10.87173,19.2361C10.42638,18.1227,9.190349999999999,17.5494,8.05273,17.9286C8.05273,17.9286,8.68519,19.826,8.68519,19.826C8.818190000000001,19.7817,8.962710000000001,19.8487,9.01478,19.9789C9.01478,19.9789,10.87173,19.2361,10.87173,19.2361C10.87173,19.2361,10.87173,19.2361,10.87173,19.2361ZM18.0296,7.48441C17.5835,8.599689999999999,18.0127,9.87386,19.0427,10.49187C19.0427,10.49187,20.0717,8.77688,20.0717,8.77688C19.8835,8.66393,19.805,8.43104,19.8865,8.22719C19.8865,8.22719,18.0296,7.48441,18.0296,7.48441C18.0296,7.48441,18.0296,7.48441,18.0296,7.48441ZM9.01478,4.02154C8.962679999999999,4.1517800000000005,8.81811,4.21884,8.68504,4.1745C8.68504,4.1745,8.05279,6.07194,8.05279,6.07194C9.19043,6.45101,10.42638,5.877689999999999,10.87173,4.76433C10.87173,4.76433,9.01478,4.02154,9.01478,4.02154C9.01478,4.02154,9.01478,4.02154,9.01478,4.02154ZM4.1136800000000004,8.22727C4.19524,8.43116,4.11678,8.66411,3.92849,8.77711C3.92849,8.77711,4.95764,10.492,4.95764,10.492C5.98757,9.873899999999999,6.41674,8.59974,5.9706399999999995,7.48449C5.9706399999999995,7.48449,4.1136800000000004,8.22727,4.1136800000000004,8.22727C4.1136800000000004,8.22727,4.1136800000000004,8.22727,4.1136800000000004,8.22727ZM6.11139,15.8293C6.46842,14.7582,5.92867,13.5945,4.88039,13.1752C4.88039,13.1752,4.1376100000000005,15.0321,4.1376100000000005,15.0321C4.20268,15.0582,4.23618,15.1304,4.21402,15.1969C4.21402,15.1969,6.11139,15.8293,6.11139,15.8293C6.11139,15.8293,6.11139,15.8293,6.11139,15.8293ZM14.9859,19.9789C15.0379,19.8488,15.1824,19.7818,15.3153,19.8261C15.3153,19.8261,15.948,17.928800000000003,15.948,17.928800000000003C14.8104,17.549500000000002,13.5743,18.1227,13.1289,19.2361C13.1289,19.2361,14.9859,19.9789,14.9859,19.9789C14.9859,19.9789,14.9859,19.9789,14.9859,19.9789ZM13.1289,4.76433C13.5743,5.87771,14.8103,6.45098,15.9479,6.07178C15.9479,6.07178,15.3155,4.17441,15.3155,4.17441C15.1824,4.21875,15.0379,4.15172,14.9859,4.02154C14.9859,4.02154,13.1289,4.76433,13.1289,4.76433C13.1289,4.76433,13.1289,4.76433,13.1289,4.76433Z"  fill-opacity="1"/></g></g></svg>