<svg xmlns="http://www.w3.org/2000/svg" xmlns:xlink="http://www.w3.org/1999/xlink" fill="none" version="1.1" width="24" height="24" viewBox="0 0 24 24"><defs><clipPath id="master_svg0_21_44012"><rect x="0" y="0" width="24" height="24" rx="0"/></clipPath></defs><g clip-path="url(#master_svg0_21_44012)"><g><path d="M9.000001110610963,16.000042417144776C8.447721110610962,16.000042417144776,8.000001110610963,16.447742417144774,8.000001110610963,17.000042417144776C8.000001110610963,17.552242417144775,8.447721110610962,18.000042417144776,9.000001110610963,18.000042417144776C9.000001110610963,18.000042417144776,9.000001110610963,16.000042417144776,9.000001110610963,16.000042417144776C9.000001110610963,16.000042417144776,9.000001110610963,16.000042417144776,9.000001110610963,16.000042417144776ZM15.000041110610962,18.000042417144776C15.552341110610962,18.000042417144776,16.00004111061096,17.552242417144775,16.00004111061096,17.000042417144776C16.00004111061096,16.447742417144774,15.552341110610962,16.000042417144776,15.000041110610962,16.000042417144776C15.000041110610962,16.000042417144776,15.000041110610962,18.000042417144776,15.000041110610962,18.000042417144776C15.000041110610962,18.000042417144776,15.000041110610962,18.000042417144776,15.000041110610962,18.000042417144776ZM5.470781110610962,7.078282417144775C5.470781110610962,7.078282417144775,6.084721110610962,7.867632417144775,6.084721110610962,7.867632417144775C6.084721110610962,7.867632417144775,5.470781110610962,7.078282417144775,5.470781110610962,7.078282417144775C5.470781110610962,7.078282417144775,5.470781110610962,7.078282417144775,5.470781110610962,7.078282417144775ZM8.070781110610962,5.056052417144775C8.070781110610962,5.056052417144775,8.684721110610962,5.845402417144776,8.684721110610962,5.845402417144776C8.684721110610962,5.845402417144776,8.070781110610962,5.056052417144775,8.070781110610962,5.056052417144775C8.070781110610962,5.056052417144775,8.070781110610962,5.056052417144775,8.070781110610962,5.056052417144775ZM15.929241110610961,5.056052417144775C15.929241110610961,5.056052417144775,15.315341110610962,5.845412417144775,15.315341110610962,5.845412417144775C15.315341110610962,5.845412417144775,15.315341110610962,5.845412417144775,15.315341110610962,5.845412417144775C15.315341110610962,5.845412417144775,15.929241110610961,5.056052417144775,15.929241110610961,5.056052417144775C15.929241110610961,5.056052417144775,15.929241110610961,5.056052417144775,15.929241110610961,5.056052417144775ZM18.52924111061096,7.078282417144775C18.52924111061096,7.078282417144775,17.91534111061096,7.867632417144775,17.91534111061096,7.867632417144775C17.91534111061096,7.867632417144775,18.52924111061096,7.078282417144775,18.52924111061096,7.078282417144775C18.52924111061096,7.078282417144775,18.52924111061096,7.078282417144775,18.52924111061096,7.078282417144775ZM20.56404111061096,18.815942417144775C20.56404111061096,18.815942417144775,19.673041110610963,18.361942417144775,19.673041110610963,18.361942417144775C19.673041110610963,18.361942417144775,19.673041110610963,18.361942417144775,19.673041110610963,18.361942417144775C19.673041110610963,18.361942417144775,20.56404111061096,18.815942417144775,20.56404111061096,18.815942417144775C20.56404111061096,18.815942417144775,20.56404111061096,18.815942417144775,20.56404111061096,18.815942417144775ZM18.81604111061096,20.564042417144776C18.81604111061096,20.564042417144776,18.362041110610964,19.673042417144774,18.362041110610964,19.673042417144774C18.362041110610964,19.673042417144774,18.362041110610964,19.673042417144774,18.362041110610964,19.673042417144774C18.362041110610964,19.673042417144774,18.81604111061096,20.564042417144776,18.81604111061096,20.564042417144776C18.81604111061096,20.564042417144776,18.81604111061096,20.564042417144776,18.81604111061096,20.564042417144776ZM20.215941110610963,8.577742417144776C20.215941110610963,8.577742417144776,21.01994111061096,7.983092417144776,21.01994111061096,7.983092417144776C21.01994111061096,7.983092417144776,21.01994111061096,7.983092417144776,21.01994111061096,7.983092417144776C21.01994111061096,7.983092417144776,20.215941110610963,8.577742417144776,20.215941110610963,8.577742417144776C20.215941110610963,8.577742417144776,20.215941110610963,8.577742417144776,20.215941110610963,8.577742417144776ZM20.851941110610962,9.878132417144776C20.851941110610962,9.878132417144776,21.814941110610963,9.608582417144776,21.814941110610963,9.608582417144776C21.814941110610963,9.608582417144776,21.814941110610963,9.608582417144776,21.814941110610963,9.608582417144776C21.814941110610963,9.608582417144776,20.851941110610962,9.878132417144776,20.851941110610962,9.878132417144776C20.851941110610962,9.878132417144776,20.851941110610962,9.878132417144776,20.851941110610962,9.878132417144776ZM10.954611110610962,3.2064624171447753C10.954611110610962,3.2064624171447753,10.693271110610961,2.2412214171447755,10.693271110610961,2.2412214171447755C10.693271110610961,2.2412214171447755,10.954611110610962,3.2064624171447753,10.954611110610962,3.2064624171447753C10.954611110610962,3.2064624171447753,10.954611110610962,3.2064624171447753,10.954611110610962,3.2064624171447753ZM13.045441110610962,3.2064624171447753C13.045441110610962,3.2064624171447753,12.784041110610962,4.171712417144775,12.784041110610962,4.171712417144775C12.784041110610962,4.171712417144775,12.784041110610962,4.171712417144775,12.784041110610962,4.171712417144775C12.784041110610962,4.171712417144775,13.045441110610962,3.2064624171447753,13.045441110610962,3.2064624171447753C13.045441110610962,3.2064624171447753,13.045441110610962,3.2064624171447753,13.045441110610962,3.2064624171447753ZM3.148051110610962,9.878132417144776C3.148051110610962,9.878132417144776,4.111041110610962,10.147682417144775,4.111041110610962,10.147682417144775C4.111041110610962,10.147682417144775,4.111041110610962,10.147682417144775,4.111041110610962,10.147682417144775C4.111041110610962,10.147682417144775,3.148051110610962,9.878132417144776,3.148051110610962,9.878132417144776C3.148051110610962,9.878132417144776,3.148051110610962,9.878132417144776,3.148051110610962,9.878132417144776ZM3.784051110610962,8.577742417144776C3.784051110610962,8.577742417144776,4.588041110610962,9.172392417144774,4.588041110610962,9.172392417144774C4.588041110610962,9.172392417144774,4.588041110610962,9.172392417144774,4.588041110610962,9.172392417144774C4.588041110610962,9.172392417144774,3.784051110610962,8.577742417144776,3.784051110610962,8.577742417144776C3.784051110610962,8.577742417144776,3.784051110610962,8.577742417144776,3.784051110610962,8.577742417144776ZM3.4359711106109616,18.815942417144775C3.4359711106109616,18.815942417144775,4.326981110610962,18.361942417144775,4.326981110610962,18.361942417144775C4.326981110610962,18.361942417144775,4.326981110610962,18.361942417144775,4.326981110610962,18.361942417144775C4.326981110610962,18.361942417144775,3.4359711106109616,18.815942417144775,3.4359711106109616,18.815942417144775C3.4359711106109616,18.815942417144775,3.4359711106109616,18.815942417144775,3.4359711106109616,18.815942417144775ZM5.184041110610962,20.564042417144776C5.184041110610962,20.564042417144776,5.638031110610962,19.673042417144774,5.638031110610962,19.673042417144774C5.638031110610962,19.673042417144774,5.638031110610962,19.673042417144774,5.638031110610962,19.673042417144774C5.638031110610962,19.673042417144774,5.184041110610962,20.564042417144776,5.184041110610962,20.564042417144776C5.184041110610962,20.564042417144776,5.184041110610962,20.564042417144776,5.184041110610962,20.564042417144776ZM9.000001110610963,18.000042417144776C9.000001110610963,18.000042417144776,15.000041110610962,18.000042417144776,15.000041110610962,18.000042417144776C15.000041110610962,18.000042417144776,15.000041110610962,16.000042417144776,15.000041110610962,16.000042417144776C15.000041110610962,16.000042417144776,9.000001110610963,16.000042417144776,9.000001110610963,16.000042417144776C9.000001110610963,16.000042417144776,9.000001110610963,18.000042417144776,9.000001110610963,18.000042417144776C9.000001110610963,18.000042417144776,9.000001110610963,18.000042417144776,9.000001110610963,18.000042417144776ZM4.000001110610961,14.600042417144776C4.000001110610961,14.600042417144776,4.000001110610961,12.130142417144775,4.000001110610961,12.130142417144775C4.000001110610961,12.130142417144775,1.999999993110962,12.130142417144775,1.999999993110962,12.130142417144775C1.999999993110962,12.130142417144775,1.999999993110962,14.600042417144776,1.999999993110962,14.600042417144776C1.999999993110962,14.600042417144776,4.000001110610961,14.600042417144776,4.000001110610961,14.600042417144776C4.000001110610961,14.600042417144776,4.000001110610961,14.600042417144776,4.000001110610961,14.600042417144776ZM6.084721110610962,7.867632417144775C6.084721110610962,7.867632417144775,8.684721110610962,5.845402417144776,8.684721110610962,5.845402417144776C8.684721110610962,5.845402417144776,7.456841110610962,4.266702417144776,7.456841110610962,4.266702417144776C7.456841110610962,4.266702417144776,4.8568411106109615,6.288922417144775,4.8568411106109615,6.288922417144775C4.8568411106109615,6.288922417144775,6.084721110610962,7.867632417144775,6.084721110610962,7.867632417144775C6.084721110610962,7.867632417144775,6.084721110610962,7.867632417144775,6.084721110610962,7.867632417144775ZM15.315341110610962,5.845412417144775C15.315341110610962,5.845412417144775,17.91534111061096,7.867632417144775,17.91534111061096,7.867632417144775C17.91534111061096,7.867632417144775,19.143241110610962,6.288932417144776,19.143241110610962,6.288932417144776C19.143241110610962,6.288932417144776,16.543241110610964,4.266702417144776,16.543241110610964,4.266702417144776C16.543241110610964,4.266702417144776,15.315341110610962,5.845412417144775,15.315341110610962,5.845412417144775C15.315341110610962,5.845412417144775,15.315341110610962,5.845412417144775,15.315341110610962,5.845412417144775ZM20.00004111061096,12.130142417144775C20.00004111061096,12.130142417144775,20.00004111061096,14.600042417144776,20.00004111061096,14.600042417144776C20.00004111061096,14.600042417144776,22.00004111061096,14.600042417144776,22.00004111061096,14.600042417144776C22.00004111061096,14.600042417144776,22.00004111061096,12.130142417144775,22.00004111061096,12.130142417144775C22.00004111061096,12.130142417144775,20.00004111061096,12.130142417144775,20.00004111061096,12.130142417144775C20.00004111061096,12.130142417144775,20.00004111061096,12.130142417144775,20.00004111061096,12.130142417144775ZM14.600041110610961,20.000042417144776C14.600041110610961,20.000042417144776,9.400001110610962,20.000042417144776,9.400001110610962,20.000042417144776C9.400001110610962,20.000042417144776,9.400001110610962,22.000042417144776,9.400001110610962,22.000042417144776C9.400001110610962,22.000042417144776,14.600041110610961,22.000042417144776,14.600041110610961,22.000042417144776C14.600041110610961,22.000042417144776,14.600041110610961,20.000042417144776,14.600041110610961,20.000042417144776C14.600041110610961,20.000042417144776,14.600041110610961,20.000042417144776,14.600041110610961,20.000042417144776ZM20.00004111061096,14.600042417144776C20.00004111061096,15.736642417144775,19.999241110610964,16.528942417144776,19.94884111061096,17.145742417144774C19.89944111061096,17.750942417144778,19.807241110610963,18.098642417144774,19.673041110610963,18.361942417144775C19.673041110610963,18.361942417144775,21.455041110610964,19.269942417144776,21.455041110610964,19.269942417144776C21.756841110610964,18.677642417144774,21.88264111061096,18.037442417144774,21.94224111061096,17.308642417144775C22.000841110610963,16.591442417144776,22.00004111061096,15.703642417144776,22.00004111061096,14.600042417144776C22.00004111061096,14.600042417144776,20.00004111061096,14.600042417144776,20.00004111061096,14.600042417144776C20.00004111061096,14.600042417144776,20.00004111061096,14.600042417144776,20.00004111061096,14.600042417144776ZM14.600041110610961,22.000042417144776C15.703641110610961,22.000042417144776,16.591441110610962,22.000742417144775,17.308641110610964,21.942142417144776C18.037541110610963,21.882642417144776,18.677741110610963,21.756842417144775,19.27004111061096,21.455042417144774C19.27004111061096,21.455042417144774,18.362041110610964,19.673042417144774,18.362041110610964,19.673042417144774C18.098641110610963,19.807242417144774,17.75094111061096,19.899342417144776,17.14584111061096,19.948842417144775C16.528941110610962,19.999242417144774,15.736641110610963,20.000042417144776,14.600041110610961,20.000042417144776C14.600041110610961,20.000042417144776,14.600041110610961,22.000042417144776,14.600041110610961,22.000042417144776C14.600041110610961,22.000042417144776,14.600041110610961,22.000042417144776,14.600041110610961,22.000042417144776ZM19.673041110610963,18.361942417144775C19.385441110610962,18.926442417144777,18.926541110610962,19.385442417144777,18.362041110610964,19.673042417144774C18.362041110610964,19.673042417144774,19.27004111061096,21.455042417144774,19.27004111061096,21.455042417144774C20.21084111061096,20.975642417144776,20.97574111061096,20.210742417144775,21.455041110610964,19.269942417144776C21.455041110610964,19.269942417144776,19.673041110610963,18.361942417144775,19.673041110610963,18.361942417144775C19.673041110610963,18.361942417144775,19.673041110610963,18.361942417144775,19.673041110610963,18.361942417144775ZM17.91534111061096,7.867632417144775C18.866741110610963,8.607642417144774,19.18624111061096,8.867092417144775,19.41204111061096,9.172392417144774C19.41204111061096,9.172392417144774,21.01994111061096,7.983092417144776,21.01994111061096,7.983092417144776C20.592541110610963,7.4051824171447755,20.00524111061096,6.9594024171447755,19.143241110610962,6.288932417144776C19.143241110610962,6.288932417144776,17.91534111061096,7.867632417144775,17.91534111061096,7.867632417144775C17.91534111061096,7.867632417144775,17.91534111061096,7.867632417144775,17.91534111061096,7.867632417144775ZM22.00004111061096,12.130142417144775C22.00004111061096,11.038052417144776,22.008741110610963,10.300782417144775,21.814941110610963,9.608582417144776C21.814941110610963,9.608582417144776,19.88904111061096,10.147682417144775,19.88904111061096,10.147682417144775C19.99134111061096,10.513352417144775,20.00004111061096,10.924782417144776,20.00004111061096,12.130142417144775C20.00004111061096,12.130142417144775,22.00004111061096,12.130142417144775,22.00004111061096,12.130142417144775C22.00004111061096,12.130142417144775,22.00004111061096,12.130142417144775,22.00004111061096,12.130142417144775ZM19.41204111061096,9.172392417144774C19.629041110610963,9.465772417144775,19.790641110610963,9.796282417144775,19.88904111061096,10.147682417144775C19.88904111061096,10.147682417144775,21.814941110610963,9.608582417144776,21.814941110610963,9.608582417144776C21.65104111061096,9.022912417144775,21.38164111061096,8.472062417144777,21.01994111061096,7.983092417144776C21.01994111061096,7.983092417144776,19.41204111061096,9.172392417144774,19.41204111061096,9.172392417144774C19.41204111061096,9.172392417144774,19.41204111061096,9.172392417144774,19.41204111061096,9.172392417144774ZM8.684721110610962,5.845402417144776C10.163021110610963,4.695622417144776,10.681421110610962,4.316442417144776,11.215961110610962,4.171712417144775C11.215961110610962,4.171712417144775,10.693271110610961,2.2412214171447755,10.693271110610961,2.2412214171447755C9.676051110610963,2.5166404171447754,8.789141110610963,3.2304724171447754,7.456841110610962,4.266702417144776C7.456841110610962,4.266702417144776,8.684721110610962,5.845402417144776,8.684721110610962,5.845402417144776C8.684721110610962,5.845402417144776,8.684721110610962,5.845402417144776,8.684721110610962,5.845402417144776ZM16.543241110610964,4.266702417144776C15.210941110610962,3.2304724171447754,14.324041110610962,2.5166404171447754,13.306741110610963,2.2412214171447755C13.306741110610963,2.2412214171447755,12.784041110610962,4.171712417144775,12.784041110610962,4.171712417144775C13.318641110610962,4.316442417144776,13.837041110610961,4.695622417144776,15.315341110610962,5.845412417144775C15.315341110610962,5.845412417144775,16.543241110610964,4.266702417144776,16.543241110610964,4.266702417144776C16.543241110610964,4.266702417144776,16.543241110610964,4.266702417144776,16.543241110610964,4.266702417144776ZM11.215961110610962,4.171712417144775C11.729411110610961,4.0326924171447756,12.270541110610962,4.0326924171447756,12.784041110610962,4.171712417144775C12.784041110610962,4.171712417144775,13.306741110610963,2.2412214171447755,13.306741110610963,2.2412214171447755C12.450941110610962,2.0095162171447756,11.549021110610962,2.0095162171447756,10.693271110610961,2.2412214171447755C10.693271110610961,2.2412214171447755,11.215961110610962,4.171712417144775,11.215961110610962,4.171712417144775C11.215961110610962,4.171712417144775,11.215961110610962,4.171712417144775,11.215961110610962,4.171712417144775ZM4.000001110610961,12.130142417144775C4.000001110610961,10.924782417144776,4.008691110610962,10.513352417144775,4.111041110610962,10.147682417144775C4.111041110610962,10.147682417144775,2.185068110610962,9.608582417144776,2.185068110610962,9.608582417144776C1.991309990610962,10.300782417144775,1.999999993110962,11.038052417144776,1.999999993110962,12.130142417144775C1.999999993110962,12.130142417144775,4.000001110610961,12.130142417144775,4.000001110610961,12.130142417144775C4.000001110610961,12.130142417144775,4.000001110610961,12.130142417144775,4.000001110610961,12.130142417144775ZM4.8568411106109615,6.288922417144775C3.994801110610962,6.959392417144775,3.407501110610962,7.4051824171447755,2.980067110610962,7.983092417144776C2.980067110610962,7.983092417144776,4.588041110610962,9.172392417144774,4.588041110610962,9.172392417144774C4.813841110610962,8.867092417144775,5.133281110610962,8.607642417144774,6.084721110610962,7.867632417144775C6.084721110610962,7.867632417144775,4.8568411106109615,6.288922417144775,4.8568411106109615,6.288922417144775C4.8568411106109615,6.288922417144775,4.8568411106109615,6.288922417144775,4.8568411106109615,6.288922417144775ZM4.111041110610962,10.147682417144775C4.209401110610962,9.796282417144775,4.371051110610962,9.465772417144775,4.588041110610962,9.172392417144774C4.588041110610962,9.172392417144774,2.980068110610962,7.983092417144776,2.980068110610962,7.983092417144776C2.6184141106109617,8.472062417144777,2.349004110610962,9.022912417144775,2.185068110610962,9.608582417144776C2.185068110610962,9.608582417144776,4.111041110610962,10.147682417144775,4.111041110610962,10.147682417144775C4.111041110610962,10.147682417144775,4.111041110610962,10.147682417144775,4.111041110610962,10.147682417144775ZM1.999999993110962,14.600042417144776C1.999999993110962,15.703642417144776,1.9992199936109618,16.591442417144776,2.057818010610962,17.308642417144775C2.117367110610962,18.037442417144774,2.243180110610962,18.677642417144774,2.544967110610962,19.269942417144776C2.544967110610962,19.269942417144776,4.326981110610962,18.361942417144775,4.326981110610962,18.361942417144775C4.192791110610962,18.098642417144774,4.1006211106109625,17.750942417144778,4.051181110610962,17.145742417144774C4.000781110610962,16.528942417144776,4.000001110610961,15.736642417144775,4.000001110610961,14.600042417144776C4.000001110610961,14.600042417144776,1.999999993110962,14.600042417144776,1.999999993110962,14.600042417144776C1.999999993110962,14.600042417144776,1.999999993110962,14.600042417144776,1.999999993110962,14.600042417144776ZM9.400001110610962,20.000042417144776C8.26339111061096,20.000042417144776,7.471081110610962,19.999242417144774,6.854241110610962,19.948842417144775C6.249071110610962,19.899342417144776,5.901381110610962,19.807242417144774,5.638031110610962,19.673042417144774C5.638031110610962,19.673042417144774,4.730051110610962,21.455042417144774,4.730051110610962,21.455042417144774C5.322341110610962,21.756842417144775,5.962531110610962,21.882642417144776,6.691381110610962,21.942142417144776C7.408551110610962,22.000742417144775,8.296401110610962,22.000042417144776,9.400001110610962,22.000042417144776C9.400001110610962,22.000042417144776,9.400001110610962,20.000042417144776,9.400001110610962,20.000042417144776C9.400001110610962,20.000042417144776,9.400001110610962,20.000042417144776,9.400001110610962,20.000042417144776ZM2.544967110610962,19.269942417144776C3.024331110610962,20.210742417144775,3.789241110610962,20.975642417144776,4.730051110610962,21.455042417144774C4.730051110610962,21.455042417144774,5.638031110610962,19.673042417144774,5.638031110610962,19.673042417144774C5.073541110610962,19.385442417144777,4.614601110610963,18.926442417144777,4.326981110610962,18.361942417144775C4.326981110610962,18.361942417144775,2.544967110610962,19.269942417144776,2.544967110610962,19.269942417144776C2.544967110610962,19.269942417144776,2.544967110610962,19.269942417144776,2.544967110610962,19.269942417144776Z" fill="#FC457B" fill-opacity="1"/></g></g></svg>