<svg xmlns="http://www.w3.org/2000/svg" xmlns:xlink="http://www.w3.org/1999/xlink" fill="none" version="1.1" width="24" height="24" viewBox="0 0 24 24"><defs><clipPath id="master_svg0_21_43914"><rect x="0" y="0" width="24" height="24" rx="0"/></clipPath></defs><g clip-path="url(#master_svg0_21_43914)"><g><path d="M15.707098331069947,17.292898331069946C15.316598331069946,16.902398331069946,14.683398331069947,16.902398331069946,14.292898331069946,17.292898331069946C13.902398331069946,17.683398331069945,13.902398331069946,18.316598331069947,14.292898331069946,18.707098331069947C14.292898331069946,18.707098331069947,15.707098331069947,17.292898331069946,15.707098331069947,17.292898331069946C15.707098331069947,17.292898331069946,15.707098331069947,17.292898331069946,15.707098331069947,17.292898331069946ZM16.999998331069946,19.999998331069946C16.999998331069946,19.999998331069946,16.292898331069946,20.707098331069947,16.292898331069946,20.707098331069947C16.683398331069945,21.097598331069946,17.316598331069947,21.097598331069946,17.707098331069947,20.707098331069947C17.707098331069947,20.707098331069947,16.999998331069946,19.999998331069946,16.999998331069946,19.999998331069946C16.999998331069946,19.999998331069946,16.999998331069946,19.999998331069946,16.999998331069946,19.999998331069946ZM21.707098331069947,16.707098331069947C22.097598331069946,16.316598331069947,22.097598331069946,15.683398331069947,21.707098331069947,15.292898331069946C21.316598331069947,14.902398331069946,20.683398331069945,14.902398331069946,20.292898331069946,15.292898331069946C20.292898331069946,15.292898331069946,21.707098331069947,16.707098331069947,21.707098331069947,16.707098331069947C21.707098331069947,16.707098331069947,21.707098331069947,16.707098331069947,21.707098331069947,16.707098331069947ZM10.999998331069946,20.999998331069946C11.552278331069946,20.999998331069946,11.999998331069946,20.552298331069945,11.999998331069946,19.999998331069946C11.999998331069946,19.447698331069947,11.552278331069946,18.999998331069946,10.999998331069946,18.999998331069946C10.999998331069946,18.999998331069946,10.999998331069946,20.999998331069946,10.999998331069946,20.999998331069946C10.999998331069946,20.999998331069946,10.999998331069946,20.999998331069946,10.999998331069946,20.999998331069946ZM18.999998331069946,11.999998331069946C18.999998331069946,12.552288331069946,19.447698331069947,12.999998331069946,19.999998331069946,12.999998331069946C20.552298331069945,12.999998331069946,20.999998331069946,12.552288331069946,20.999998331069946,11.999998331069946C20.999998331069946,11.999998331069946,18.999998331069946,11.999998331069946,18.999998331069946,11.999998331069946C18.999998331069946,11.999998331069946,18.999998331069946,11.999998331069946,18.999998331069946,11.999998331069946ZM5.092018331069946,19.781998331069946C5.092018331069946,19.781998331069946,5.546008331069946,18.890998331069945,5.546008331069946,18.890998331069945C5.546008331069946,18.890998331069945,5.546008331069946,18.890998331069945,5.546008331069946,18.890998331069945C5.546008331069946,18.890998331069945,5.092018331069946,19.781998331069946,5.092018331069946,19.781998331069946C5.092018331069946,19.781998331069946,5.092018331069946,19.781998331069946,5.092018331069946,19.781998331069946ZM4.217988331069947,18.907998331069948C4.217988331069947,18.907998331069948,5.108988331069947,18.453998331069947,5.108988331069947,18.453998331069947C5.108988331069947,18.453998331069947,5.108988331069947,18.453998331069947,5.108988331069947,18.453998331069947C5.108988331069947,18.453998331069947,4.217988331069947,18.907998331069948,4.217988331069947,18.907998331069948C4.217988331069947,18.907998331069948,4.217988331069947,18.907998331069948,4.217988331069947,18.907998331069948ZM18.907998331069948,4.217988331069947C18.907998331069948,4.217988331069947,18.453998331069947,5.108988331069947,18.453998331069947,5.108988331069947C18.453998331069947,5.108988331069947,18.453998331069947,5.108988331069947,18.453998331069947,5.108988331069947C18.453998331069947,5.108988331069947,18.907998331069948,4.217988331069947,18.907998331069948,4.217988331069947C18.907998331069948,4.217988331069947,18.907998331069948,4.217988331069947,18.907998331069948,4.217988331069947ZM19.781998331069946,5.092018331069946C19.781998331069946,5.092018331069946,18.890998331069945,5.546008331069946,18.890998331069945,5.546008331069946C18.890998331069945,5.546008331069946,18.890998331069945,5.546008331069946,18.890998331069945,5.546008331069946C18.890998331069945,5.546008331069946,19.781998331069946,5.092018331069946,19.781998331069946,5.092018331069946C19.781998331069946,5.092018331069946,19.781998331069946,5.092018331069946,19.781998331069946,5.092018331069946ZM5.092018331069946,4.217988331069947C5.092018331069946,4.217988331069947,4.638028331069947,3.3269803310699464,4.638028331069947,3.3269803310699464C4.638028331069947,3.3269803310699464,4.638028331069947,3.3269803310699464,4.638028331069947,3.3269803310699464C4.638028331069947,3.3269803310699464,5.092018331069946,4.217988331069947,5.092018331069946,4.217988331069947C5.092018331069946,4.217988331069947,5.092018331069946,4.217988331069947,5.092018331069946,4.217988331069947ZM4.217988331069947,5.092018331069946C4.217988331069947,5.092018331069946,3.3269803310699464,4.638028331069947,3.3269803310699464,4.638028331069947C3.3269803310699464,4.638028331069947,3.3269803310699464,4.638028331069947,3.3269803310699464,4.638028331069947C3.3269803310699464,4.638028331069947,4.217988331069947,5.092018331069946,4.217988331069947,5.092018331069946C4.217988331069947,5.092018331069946,4.217988331069947,5.092018331069946,4.217988331069947,5.092018331069946ZM5.999998331069946,19.999998331069946C5.999998331069946,20.552298331069945,6.447718331069947,20.999998331069946,6.999998331069946,20.999998331069946C7.552278331069946,20.999998331069946,7.999998331069946,20.552298331069945,7.999998331069946,19.999998331069946C7.999998331069946,19.999998331069946,5.999998331069946,19.999998331069946,5.999998331069946,19.999998331069946C5.999998331069946,19.999998331069946,5.999998331069946,19.999998331069946,5.999998331069946,19.999998331069946ZM7.100018331069946,18.999998331069946C7.100018331069946,18.999998331069946,6.119998331069946,18.801098331069944,6.119998331069946,18.801098331069944C6.119998331069946,18.801098331069944,7.100018331069946,18.999998331069946,7.100018331069946,18.999998331069946C7.100018331069946,18.999998331069946,7.100018331069946,18.999998331069946,7.100018331069946,18.999998331069946ZM11.999998331069946,15.999998331069946C12.552288331069946,15.999998331069946,12.999998331069946,15.552298331069947,12.999998331069946,14.999998331069946C12.999998331069946,14.447698331069946,12.552288331069946,13.999998331069946,11.999998331069946,13.999998331069946C11.999998331069946,13.999998331069946,11.999998331069946,15.999998331069946,11.999998331069946,15.999998331069946C11.999998331069946,15.999998331069946,11.999998331069946,15.999998331069946,11.999998331069946,15.999998331069946ZM14.292898331069946,18.707098331069947C14.292898331069946,18.707098331069947,16.292898331069946,20.707098331069947,16.292898331069946,20.707098331069947C16.292898331069946,20.707098331069947,17.707098331069947,19.292898331069946,17.707098331069947,19.292898331069946C17.707098331069947,19.292898331069946,15.707098331069947,17.292898331069946,15.707098331069947,17.292898331069946C15.707098331069947,17.292898331069946,14.292898331069946,18.707098331069947,14.292898331069946,18.707098331069947C14.292898331069946,18.707098331069947,14.292898331069946,18.707098331069947,14.292898331069946,18.707098331069947ZM17.707098331069947,20.707098331069947C17.707098331069947,20.707098331069947,21.707098331069947,16.707098331069947,21.707098331069947,16.707098331069947C21.707098331069947,16.707098331069947,20.292898331069946,15.292898331069946,20.292898331069946,15.292898331069946C20.292898331069946,15.292898331069946,16.292898331069946,19.292898331069946,16.292898331069946,19.292898331069946C16.292898331069946,19.292898331069946,17.707098331069947,20.707098331069947,17.707098331069947,20.707098331069947C17.707098331069947,20.707098331069947,17.707098331069947,20.707098331069947,17.707098331069947,20.707098331069947ZM12.999998331069946,9.999998331069946C12.999998331069946,10.552278331069946,12.552288331069946,10.999998331069946,11.999998331069946,10.999998331069946C11.999998331069946,10.999998331069946,11.999998331069946,12.999998331069946,11.999998331069946,12.999998331069946C13.656898331069947,12.999998331069946,14.999998331069946,11.656848331069947,14.999998331069946,9.999998331069946C14.999998331069946,9.999998331069946,12.999998331069946,9.999998331069946,12.999998331069946,9.999998331069946C12.999998331069946,9.999998331069946,12.999998331069946,9.999998331069946,12.999998331069946,9.999998331069946ZM11.999998331069946,10.999998331069946C11.447718331069947,10.999998331069946,10.999998331069946,10.552278331069946,10.999998331069946,9.999998331069946C10.999998331069946,9.999998331069946,8.999998331069946,9.999998331069946,8.999998331069946,9.999998331069946C8.999998331069946,11.656848331069947,10.343148331069946,12.999998331069946,11.999998331069946,12.999998331069946C11.999998331069946,12.999998331069946,11.999998331069946,10.999998331069946,11.999998331069946,10.999998331069946C11.999998331069946,10.999998331069946,11.999998331069946,10.999998331069946,11.999998331069946,10.999998331069946ZM10.999998331069946,9.999998331069946C10.999998331069946,9.447718331069947,11.447718331069947,8.999998331069946,11.999998331069946,8.999998331069946C11.999998331069946,8.999998331069946,11.999998331069946,6.999998331069946,11.999998331069946,6.999998331069946C10.343148331069946,6.999998331069946,8.999998331069946,8.343148331069946,8.999998331069946,9.999998331069946C8.999998331069946,9.999998331069946,10.999998331069946,9.999998331069946,10.999998331069946,9.999998331069946C10.999998331069946,9.999998331069946,10.999998331069946,9.999998331069946,10.999998331069946,9.999998331069946ZM11.999998331069946,8.999998331069946C12.552288331069946,8.999998331069946,12.999998331069946,9.447718331069947,12.999998331069946,9.999998331069946C12.999998331069946,9.999998331069946,14.999998331069946,9.999998331069946,14.999998331069946,9.999998331069946C14.999998331069946,8.343148331069946,13.656898331069947,6.999998331069946,11.999998331069946,6.999998331069946C11.999998331069946,6.999998331069946,11.999998331069946,8.999998331069946,11.999998331069946,8.999998331069946C11.999998331069946,8.999998331069946,11.999998331069946,8.999998331069946,11.999998331069946,8.999998331069946ZM7.1999983310699465,4.999998331069946C7.1999983310699465,4.999998331069946,16.799998331069947,4.999998331069946,16.799998331069947,4.999998331069946C16.799998331069947,4.999998331069946,16.799998331069947,3.000000083799946,16.799998331069947,3.000000083799946C16.799998331069947,3.000000083799946,7.1999983310699465,3.000000083799946,7.1999983310699465,3.000000083799946C7.1999983310699465,3.000000083799946,7.1999983310699465,4.999998331069946,7.1999983310699465,4.999998331069946C7.1999983310699465,4.999998331069946,7.1999983310699465,4.999998331069946,7.1999983310699465,4.999998331069946ZM10.999998331069946,18.999998331069946C10.999998331069946,18.999998331069946,7.1999983310699465,18.999998331069946,7.1999983310699465,18.999998331069946C7.1999983310699465,18.999998331069946,7.1999983310699465,20.999998331069946,7.1999983310699465,20.999998331069946C7.1999983310699465,20.999998331069946,10.999998331069946,20.999998331069946,10.999998331069946,20.999998331069946C10.999998331069946,20.999998331069946,10.999998331069946,18.999998331069946,10.999998331069946,18.999998331069946C10.999998331069946,18.999998331069946,10.999998331069946,18.999998331069946,10.999998331069946,18.999998331069946ZM4.999998331069946,16.799998331069947C4.999998331069946,16.799998331069947,4.999998331069946,7.1999983310699465,4.999998331069946,7.1999983310699465C4.999998331069946,7.1999983310699465,3.000000083799946,7.1999983310699465,3.000000083799946,7.1999983310699465C3.000000083799946,7.1999983310699465,3.000000083799946,16.799998331069947,3.000000083799946,16.799998331069947C3.000000083799946,16.799998331069947,4.999998331069946,16.799998331069947,4.999998331069946,16.799998331069947C4.999998331069946,16.799998331069947,4.999998331069946,16.799998331069947,4.999998331069946,16.799998331069947ZM18.999998331069946,7.1999983310699465C18.999998331069946,7.1999983310699465,18.999998331069946,11.999998331069946,18.999998331069946,11.999998331069946C18.999998331069946,11.999998331069946,20.999998331069946,11.999998331069946,20.999998331069946,11.999998331069946C20.999998331069946,11.999998331069946,20.999998331069946,7.1999983310699465,20.999998331069946,7.1999983310699465C20.999998331069946,7.1999983310699465,18.999998331069946,7.1999983310699465,18.999998331069946,7.1999983310699465C18.999998331069946,7.1999983310699465,18.999998331069946,7.1999983310699465,18.999998331069946,7.1999983310699465ZM7.1999983310699465,18.999998331069946C6.623448331069946,18.999998331069946,6.251168331069946,18.999198331069948,5.967838331069946,18.97609833106995C5.696168331069947,18.953898331069947,5.595448331069946,18.916198331069946,5.546008331069946,18.890998331069945C5.546008331069946,18.890998331069945,4.638028331069947,20.672998331069945,4.638028331069947,20.672998331069945C5.016408331069947,20.865798331069946,5.409628331069946,20.937098331069947,5.804968331069946,20.969398331069947C6.188638331069946,21.000798331069948,6.656448331069946,20.999998331069946,7.1999983310699465,20.999998331069946C7.1999983310699465,20.999998331069946,7.1999983310699465,18.999998331069946,7.1999983310699465,18.999998331069946C7.1999983310699465,18.999998331069946,7.1999983310699465,18.999998331069946,7.1999983310699465,18.999998331069946ZM3.000000083799946,16.799998331069947C3.000000083799946,17.34359833106995,2.9992200840699463,17.811398331069945,3.0305691310699463,18.194998331069947C3.062870131069946,18.59039833106995,3.1341863310699463,18.983598331069945,3.3269813310699465,19.361998331069945C3.3269813310699465,19.361998331069945,5.108988331069947,18.453998331069947,5.108988331069947,18.453998331069947C5.083798331069946,18.404498331069945,5.0461183310699464,18.30379833106995,5.023928331069946,18.032198331069946C5.000778331069946,17.748798331069946,4.999998331069946,17.376598331069946,4.999998331069946,16.799998331069947C4.999998331069946,16.799998331069947,3.000000083799946,16.799998331069947,3.000000083799946,16.799998331069947C3.000000083799946,16.799998331069947,3.000000083799946,16.799998331069947,3.000000083799946,16.799998331069947ZM5.546008331069946,18.890998331069945C5.357848331069946,18.795098331069944,5.204868331069946,18.64219833106995,5.108988331069947,18.453998331069947C5.108988331069947,18.453998331069947,3.3269803310699464,19.361998331069945,3.3269803310699464,19.361998331069945C3.614601331069946,19.926498331069947,4.073538331069946,20.385398331069947,4.638028331069947,20.672998331069945C4.638028331069947,20.672998331069945,5.546008331069946,18.890998331069945,5.546008331069946,18.890998331069945C5.546008331069946,18.890998331069945,5.546008331069946,18.890998331069945,5.546008331069946,18.890998331069945ZM16.799998331069947,4.999998331069946C17.376598331069946,4.999998331069946,17.748798331069946,5.000778331069946,18.032198331069946,5.023928331069946C18.30379833106995,5.0461183310699464,18.404498331069945,5.083798331069946,18.453998331069947,5.108988331069947C18.453998331069947,5.108988331069947,19.361998331069945,3.3269813310699465,19.361998331069945,3.3269813310699465C18.983598331069945,3.1341863310699463,18.59039833106995,3.062870131069946,18.194998331069947,3.0305691310699463C17.811398331069945,2.9992200840699463,17.34359833106995,3.000000083799946,16.799998331069947,3.000000083799946C16.799998331069947,3.000000083799946,16.799998331069947,4.999998331069946,16.799998331069947,4.999998331069946C16.799998331069947,4.999998331069946,16.799998331069947,4.999998331069946,16.799998331069947,4.999998331069946ZM20.999998331069946,7.1999983310699465C20.999998331069946,6.656448331069946,21.000798331069948,6.188638331069946,20.969398331069947,5.804968331069946C20.937098331069947,5.409628331069946,20.865798331069946,5.016408331069947,20.672998331069945,4.638028331069947C20.672998331069945,4.638028331069947,18.890998331069945,5.546008331069946,18.890998331069945,5.546008331069946C18.916198331069946,5.595448331069946,18.953898331069947,5.696168331069947,18.97609833106995,5.967838331069946C18.999198331069948,6.251168331069946,18.999998331069946,6.623448331069946,18.999998331069946,7.1999983310699465C18.999998331069946,7.1999983310699465,20.999998331069946,7.1999983310699465,20.999998331069946,7.1999983310699465C20.999998331069946,7.1999983310699465,20.999998331069946,7.1999983310699465,20.999998331069946,7.1999983310699465ZM18.453998331069947,5.108988331069947C18.64219833106995,5.204868331069946,18.795098331069944,5.357848331069946,18.890998331069945,5.546008331069946C18.890998331069945,5.546008331069946,20.672998331069945,4.638028331069947,20.672998331069945,4.638028331069947C20.385398331069947,4.073538331069946,19.926498331069947,3.614601331069946,19.361998331069945,3.3269803310699464C19.361998331069945,3.3269803310699464,18.453998331069947,5.108988331069947,18.453998331069947,5.108988331069947C18.453998331069947,5.108988331069947,18.453998331069947,5.108988331069947,18.453998331069947,5.108988331069947ZM7.1999983310699465,3.000000083799946C6.656448331069946,3.000000083799946,6.188638331069946,2.9992200840699463,5.804968331069946,3.0305691310699463C5.409628331069946,3.062870131069946,5.016408331069947,3.1341863310699463,4.638028331069947,3.3269803310699464C4.638028331069947,3.3269803310699464,5.546008331069946,5.108988331069947,5.546008331069946,5.108988331069947C5.595448331069946,5.083798331069946,5.696168331069947,5.0461183310699464,5.967838331069946,5.023928331069946C6.251168331069946,5.000778331069946,6.623448331069946,4.999998331069946,7.1999983310699465,4.999998331069946C7.1999983310699465,4.999998331069946,7.1999983310699465,3.000000083799946,7.1999983310699465,3.000000083799946C7.1999983310699465,3.000000083799946,7.1999983310699465,3.000000083799946,7.1999983310699465,3.000000083799946ZM4.999998331069946,7.1999983310699465C4.999998331069946,6.623448331069946,5.000778331069946,6.251168331069946,5.023928331069946,5.967838331069946C5.0461183310699464,5.696168331069947,5.083798331069946,5.595448331069946,5.108988331069947,5.546008331069946C5.108988331069947,5.546008331069946,3.3269803310699464,4.638028331069947,3.3269803310699464,4.638028331069947C3.1341863310699463,5.016408331069947,3.062870131069946,5.409628331069946,3.0305691310699463,5.804968331069946C2.9992200840699463,6.188638331069946,3.000000083799946,6.656448331069946,3.000000083799946,7.1999983310699465C3.000000083799946,7.1999983310699465,4.999998331069946,7.1999983310699465,4.999998331069946,7.1999983310699465C4.999998331069946,7.1999983310699465,4.999998331069946,7.1999983310699465,4.999998331069946,7.1999983310699465ZM4.638028331069947,3.3269803310699464C4.073538331069946,3.614601331069946,3.614601331069946,4.073538331069946,3.3269803310699464,4.638028331069947C3.3269803310699464,4.638028331069947,5.108988331069947,5.546008331069946,5.108988331069947,5.546008331069946C5.204868331069946,5.357848331069946,5.357848331069946,5.204868331069946,5.546008331069946,5.108988331069947C5.546008331069946,5.108988331069947,4.638028331069947,3.3269803310699464,4.638028331069947,3.3269803310699464C4.638028331069947,3.3269803310699464,4.638028331069947,3.3269803310699464,4.638028331069947,3.3269803310699464ZM7.999998331069946,19.999998331069946C7.999998331069946,19.724698331069945,8.027658331069947,19.456898331069947,8.080028331069947,19.198898331069945C8.080028331069947,19.198898331069945,6.119998331069946,18.801098331069944,6.119998331069946,18.801098331069944C6.041198331069946,19.189298331069946,5.999998331069946,19.590298331069945,5.999998331069946,19.999998331069946C5.999998331069946,19.999998331069946,7.999998331069946,19.999998331069946,7.999998331069946,19.999998331069946C7.999998331069946,19.999998331069946,7.999998331069946,19.999998331069946,7.999998331069946,19.999998331069946ZM8.080028331069947,19.198898331069945C8.450558331069946,17.373598331069946,10.065998331069945,15.999998331069946,11.999998331069946,15.999998331069946C11.999998331069946,15.999998331069946,11.999998331069946,13.999998331069946,11.999998331069946,13.999998331069946C9.096088331069947,13.999998331069946,6.676008331069946,16.061998331069944,6.119998331069946,18.801098331069944C6.119998331069946,18.801098331069944,8.080028331069947,19.198898331069945,8.080028331069947,19.198898331069945C8.080028331069947,19.198898331069945,8.080028331069947,19.198898331069945,8.080028331069947,19.198898331069945Z" fill="#000000" fill-opacity="0.800000011920929"/></g></g></svg>