<svg xmlns="http://www.w3.org/2000/svg" xmlns:xlink="http://www.w3.org/1999/xlink" fill="none" version="1.1" width="24" height="24" viewBox="0 0 24 24"><defs><clipPath id="master_svg0_21_43011"><rect x="0" y="0" width="24" height="24" rx="0"/></clipPath></defs><g clip-path="url(#master_svg0_21_43011)"><g><path d="M9.23588470046997,13.1673C8.77597470046997,12.8615,8.15526470046997,12.9864,7.849474700469971,13.4463C7.54369470046997,13.9062,7.668624700469971,14.5269,8.12853470046997,14.8327C8.12853470046997,14.8327,9.23588470046997,13.1673,9.23588470046997,13.1673C9.23588470046997,13.1673,9.23588470046997,13.1673,9.23588470046997,13.1673ZM15.87145470046997,14.8327C16.331354700469973,14.5269,16.45625470046997,13.9062,16.15045470046997,13.4463C15.84465470046997,12.9864,15.223954700469971,12.8615,14.764154700469971,13.1673C14.764154700469971,13.1673,15.87145470046997,14.8327,15.87145470046997,14.8327C15.87145470046997,14.8327,15.87145470046997,14.8327,15.87145470046997,14.8327ZM5.546004700469971,20.891C5.546004700469971,20.891,6.000004700469971,20,6.000004700469971,20C6.000004700469971,20,6.000004700469971,20,6.000004700469971,20C6.000004700469971,20,5.546004700469971,20.891,5.546004700469971,20.891C5.546004700469971,20.891,5.546004700469971,20.891,5.546004700469971,20.891ZM5.108994700469971,20.454C5.108994700469971,20.454,6.000004700469971,20,6.000004700469971,20C6.000004700469971,20,6.000004700469971,20,6.000004700469971,20C6.000004700469971,20,5.108994700469971,20.454,5.108994700469971,20.454C5.108994700469971,20.454,5.108994700469971,20.454,5.108994700469971,20.454ZM18.89095470046997,20.454C18.89095470046997,20.454,17.99995470046997,20,17.99995470046997,20C17.99995470046997,20,17.99995470046997,20,17.99995470046997,20C17.99995470046997,20,18.89095470046997,20.454,18.89095470046997,20.454C18.89095470046997,20.454,18.89095470046997,20.454,18.89095470046997,20.454ZM18.45395470046997,20.891C18.45395470046997,20.891,18.907954700469972,21.782,18.907954700469972,21.782C18.907954700469972,21.782,18.907954700469972,21.782,18.907954700469972,21.782C18.907954700469972,21.782,18.45395470046997,20.891,18.45395470046997,20.891C18.45395470046997,20.891,18.45395470046997,20.891,18.45395470046997,20.891ZM18.95275470046997,16.4697C18.95275470046997,16.4697,17.96845470046997,16.6465,17.96845470046997,16.6465C17.96845470046997,16.6465,17.96845470046997,16.6465,17.96845470046997,16.6465C17.96845470046997,16.6465,18.95275470046997,16.4697,18.95275470046997,16.4697C18.95275470046997,16.4697,18.95275470046997,16.4697,18.95275470046997,16.4697ZM15.321254700469972,13C14.76895470046997,13,14.321254700469972,13.4477,14.321254700469972,14C14.321254700469972,14.5523,14.76895470046997,15,15.321254700469972,15C15.321254700469972,15,15.321254700469972,13,15.321254700469972,13C15.321254700469972,13,15.321254700469972,13,15.321254700469972,13ZM16.53025470046997,14.0472C16.53025470046997,14.0472,16.35345470046997,15.0315,16.35345470046997,15.0315C16.35345470046997,15.0315,16.53025470046997,14.0472,16.53025470046997,14.0472C16.53025470046997,14.0472,16.53025470046997,14.0472,16.53025470046997,14.0472ZM5.0479847004699705,16.465600000000002C5.0479847004699705,16.465600000000002,6.031994700469971,16.643700000000003,6.031994700469971,16.643700000000003C6.031994700469971,16.643700000000003,6.031994700469971,16.643700000000003,6.031994700469971,16.643700000000003C6.031994700469971,16.643700000000003,5.0479847004699705,16.465600000000002,5.0479847004699705,16.465600000000002C5.0479847004699705,16.465600000000002,5.0479847004699705,16.465600000000002,5.0479847004699705,16.465600000000002ZM8.68410470046997,15C9.236384700469971,15,9.68410470046997,14.5523,9.68410470046997,14C9.68410470046997,13.4477,9.236384700469971,13,8.68410470046997,13C8.68410470046997,13,8.68410470046997,15,8.68410470046997,15C8.68410470046997,15,8.68410470046997,15,8.68410470046997,15ZM7.465584700469971,14.048C7.465584700469971,14.048,7.643724700469971,15.032,7.643724700469971,15.032C7.643724700469971,15.032,7.643724700469971,15.032,7.643724700469971,15.032C7.643724700469971,15.032,7.465584700469971,14.048,7.465584700469971,14.048C7.465584700469971,14.048,7.465584700469971,14.048,7.465584700469971,14.048ZM14.99995470046997,7C14.99995470046997,8.65685,13.656854700469971,10,11.999994700469971,10C11.999994700469971,10,11.999994700469971,12,11.999994700469971,12C14.76145470046997,12,16.99995470046997,9.761420000000001,16.99995470046997,7C16.99995470046997,7,14.99995470046997,7,14.99995470046997,7C14.99995470046997,7,14.99995470046997,7,14.99995470046997,7ZM11.999994700469971,10C10.34315470046997,10,9.00000470046997,8.65685,9.00000470046997,7C9.00000470046997,7,7.000004700469971,7,7.000004700469971,7C7.000004700469971,9.761420000000001,9.238584700469971,12,11.999994700469971,12C11.999994700469971,12,11.999994700469971,10,11.999994700469971,10C11.999994700469971,10,11.999994700469971,10,11.999994700469971,10ZM9.00000470046997,7C9.00000470046997,5.34315,10.34315470046997,4,11.999994700469971,4C11.999994700469971,4,11.999994700469971,2,11.999994700469971,2C9.238584700469971,2,7.000004700469971,4.23858,7.000004700469971,7C7.000004700469971,7,9.00000470046997,7,9.00000470046997,7C9.00000470046997,7,9.00000470046997,7,9.00000470046997,7ZM11.999994700469971,4C13.656854700469971,4,14.99995470046997,5.34315,14.99995470046997,7C14.99995470046997,7,16.99995470046997,7,16.99995470046997,7C16.99995470046997,4.23858,14.76145470046997,2,11.999994700469971,2C11.999994700469971,2,11.999994700469971,4,11.999994700469971,4C11.999994700469971,4,11.999994700469971,4,11.999994700469971,4ZM11.999994700469971,14C10.976294700469971,14,10.02722470046997,13.6934,9.23588470046997,13.1673C9.23588470046997,13.1673,8.12853470046997,14.8327,8.12853470046997,14.8327C9.23780470046997,15.5703,10.57024470046997,16,11.999994700469971,16C11.999994700469971,16,11.999994700469971,14,11.999994700469971,14C11.999994700469971,14,11.999994700469971,14,11.999994700469971,14ZM14.764154700469971,13.1673C13.97278470046997,13.6934,13.02371470046997,14,11.999994700469971,14C11.999994700469971,14,11.999994700469971,16,11.999994700469971,16C13.42975470046997,16,14.76215470046997,15.5703,15.87145470046997,14.8327C15.87145470046997,14.8327,14.764154700469971,13.1673,14.764154700469971,13.1673C14.764154700469971,13.1673,14.764154700469971,13.1673,14.764154700469971,13.1673ZM17.99995470046997,17.6787C17.99995470046997,17.6787,17.99995470046997,19.4,17.99995470046997,19.4C17.99995470046997,19.4,19.99995470046997,19.4,19.99995470046997,19.4C19.99995470046997,19.4,19.99995470046997,17.6787,19.99995470046997,17.6787C19.99995470046997,17.6787,17.99995470046997,17.6787,17.99995470046997,17.6787C17.99995470046997,17.6787,17.99995470046997,17.6787,17.99995470046997,17.6787ZM17.39995470046997,20C17.39995470046997,20,6.60000470046997,20,6.60000470046997,20C6.60000470046997,20,6.60000470046997,22,6.60000470046997,22C6.60000470046997,22,17.39995470046997,22,17.39995470046997,22C17.39995470046997,22,17.39995470046997,20,17.39995470046997,20C17.39995470046997,20,17.39995470046997,20,17.39995470046997,20ZM6.000004700469971,19.4C6.000004700469971,19.4,6.000004700469971,17.6841,6.000004700469971,17.6841C6.000004700469971,17.6841,3.999999943169971,17.6841,3.999999943169971,17.6841C3.999999943169971,17.6841,3.999999943169971,19.4,3.999999943169971,19.4C3.999999943169971,19.4,6.000004700469971,19.4,6.000004700469971,19.4C6.000004700469971,19.4,6.000004700469971,19.4,6.000004700469971,19.4ZM6.60000470046997,20C6.3034747004699705,20,6.141224700469971,19.9992,6.024634700469971,19.9897C5.9197247004699705,19.9811,5.94248470046997,19.9707,6.000004700469971,20C6.000004700469971,20,5.092014700469971,21.782,5.092014700469971,21.782C5.363444700469971,21.9203,5.63317470046997,21.9644,5.8617747004699705,21.9831C6.0786947004699705,22.0008,6.3364847004699705,22,6.60000470046997,22C6.60000470046997,22,6.60000470046997,20,6.60000470046997,20C6.60000470046997,20,6.60000470046997,20,6.60000470046997,20ZM3.999999943169971,19.4C3.999999943169971,19.6635,3.9992199434699707,19.9213,4.016944900469971,20.1382C4.0356219004699705,20.3668,4.079689900469971,20.6366,4.217986700469971,20.908C4.217986700469971,20.908,6.000004700469971,20,6.000004700469971,20C6.029304700469971,20.0575,6.01887470046997,20.0803,6.010304700469971,19.9754C6.000784700469971,19.8588,6.000004700469971,19.6965,6.000004700469971,19.4C6.000004700469971,19.4,3.999999943169971,19.4,3.999999943169971,19.4C3.999999943169971,19.4,3.999999943169971,19.4,3.999999943169971,19.4ZM6.000004700469971,20C6.000004700469971,20,6.000004700469971,20,6.000004700469971,20C6.000004700469971,20,4.217986700469971,20.908,4.217986700469971,20.908C4.409733700469971,21.2843,4.71569570046997,21.5903,5.092014700469971,21.782C5.092014700469971,21.782,6.000004700469971,20,6.000004700469971,20C6.000004700469971,20,6.000004700469971,20,6.000004700469971,20ZM17.99995470046997,19.4C17.99995470046997,19.6965,17.999154700469973,19.8588,17.98965470046997,19.9754C17.98105470046997,20.0803,17.97065470046997,20.0575,17.99995470046997,20C17.99995470046997,20,19.78195470046997,20.908,19.78195470046997,20.908C19.920254700469968,20.6366,19.96435470046997,20.3668,19.98305470046997,20.1382C20.000754700469972,19.9213,19.99995470046997,19.6635,19.99995470046997,19.4C19.99995470046997,19.4,17.99995470046997,19.4,17.99995470046997,19.4C17.99995470046997,19.4,17.99995470046997,19.4,17.99995470046997,19.4ZM17.39995470046997,22C17.66345470046997,22,17.921254700469973,22.0008,18.13815470046997,21.9831C18.36675470046997,21.9644,18.636554700469972,21.9203,18.907954700469972,21.782C18.907954700469972,21.782,17.99995470046997,20,17.99995470046997,20C18.057454700469968,19.9707,18.080254700469972,19.9811,17.97535470046997,19.9897C17.858754700469973,19.9992,17.69645470046997,20,17.39995470046997,20C17.39995470046997,20,17.39995470046997,22,17.39995470046997,22C17.39995470046997,22,17.39995470046997,22,17.39995470046997,22ZM17.99995470046997,20C17.99995470046997,20,17.99995470046997,20,17.99995470046997,20C17.99995470046997,20,18.907954700469972,21.782,18.907954700469972,21.782C19.284254700469972,21.5903,19.59025470046997,21.2843,19.78195470046997,20.908C19.78195470046997,20.908,17.99995470046997,20,17.99995470046997,20C17.99995470046997,20,17.99995470046997,20,17.99995470046997,20ZM19.99995470046997,17.6787C19.99995470046997,17.0914,20.003954700469972,16.6658,19.93695470046997,16.293C19.93695470046997,16.293,17.96845470046997,16.6465,17.96845470046997,16.6465C17.995954700469973,16.7997,17.99995470046997,17.0048,17.99995470046997,17.6787C17.99995470046997,17.6787,19.99995470046997,17.6787,19.99995470046997,17.6787C19.99995470046997,17.6787,19.99995470046997,17.6787,19.99995470046997,17.6787ZM15.321254700469972,15C15.995154700469971,15,16.20025470046997,15.004,16.35345470046997,15.0315C16.35345470046997,15.0315,16.70695470046997,13.063,16.70695470046997,13.063C16.33415470046997,12.996,15.90855470046997,13,15.321254700469972,13C15.321254700469972,13,15.321254700469972,15,15.321254700469972,15C15.321254700469972,15,15.321254700469972,15,15.321254700469972,15ZM19.93695470046997,16.293C19.64135470046997,14.647,18.352954700469972,13.3586,16.70695470046997,13.063C16.70695470046997,13.063,16.35345470046997,15.0315,16.35345470046997,15.0315C17.17645470046997,15.1793,17.820654700469973,15.8235,17.96845470046997,16.6465C17.96845470046997,16.6465,19.93695470046997,16.293,19.93695470046997,16.293C19.93695470046997,16.293,19.93695470046997,16.293,19.93695470046997,16.293ZM6.000004700469971,17.6841C6.000004700469971,17.0048,6.004034700469971,16.7982,6.031994700469971,16.643700000000003C6.031994700469971,16.643700000000003,4.06397990046997,16.287399999999998,4.06397990046997,16.287399999999998C3.995969940469971,16.6631,3.999999943169971,17.092100000000002,3.999999943169971,17.6841C3.999999943169971,17.6841,6.000004700469971,17.6841,6.000004700469971,17.6841C6.000004700469971,17.6841,6.000004700469971,17.6841,6.000004700469971,17.6841ZM8.68410470046997,13C8.09210470046997,13,7.663124700469971,12.996,7.287444700469971,13.064C7.287444700469971,13.064,7.643724700469971,15.032,7.643724700469971,15.032C7.79815470046997,15.004,8.004814700469971,15,8.68410470046997,15C8.68410470046997,15,8.68410470046997,13,8.68410470046997,13C8.68410470046997,13,8.68410470046997,13,8.68410470046997,13ZM6.031994700469971,16.643700000000003C6.1805847004699705,15.8229,6.822954700469971,15.1806,7.643724700469971,15.032C7.643724700469971,15.032,7.287444700469971,13.064,7.287444700469971,13.064C5.64589470046997,13.3612,4.361156700469971,14.6459,4.06397990046997,16.287399999999998C4.06397990046997,16.287399999999998,6.031994700469971,16.643700000000003,6.031994700469971,16.643700000000003C6.031994700469971,16.643700000000003,6.031994700469971,16.643700000000003,6.031994700469971,16.643700000000003Z" fill="#000000" fill-opacity="0.800000011920929"/></g></g></svg>